  999
file created by SolveSpace
  0
SECTION
  2
HEADER
  9
$ACADVER
  1
AC1006
  9
$ANGDIR
  70
0
  9
$AUNITS
  70
0
  9
$AUPREC
  70
0
  9
$INSBASE
  10
0.0
  20
0.0
  30
0.0
  9
$EXTMIN
  10
0.0
  20
0.0
  9
$EXTMAX
  10
10000.0
  20
10000.0
  0
ENDSEC
  0
SECTION
  2
ENTITIES
  0
LINE
  8
0
  10
-0.345497
  20
3.866974
  30
0.000000
  11
-0.250283
  21
3.866974
  31
0.000000
  0
LINE
  8
0
  10
-0.250283
  20
3.866974
  30
0.000000
  11
-0.228249
  21
3.868012
  31
0.000000
  0
LINE
  8
0
  10
-0.228249
  20
3.868012
  30
0.000000
  11
-0.209999
  21
3.871125
  31
0.000000
  0
LINE
  8
0
  10
-0.209999
  20
3.871125
  30
0.000000
  11
-0.194863
  21
3.876252
  31
0.000000
  0
LINE
  8
0
  10
-0.194863
  20
3.876252
  30
0.000000
  11
-0.182656
  21
3.883332
  31
0.000000
  0
LINE
  8
0
  10
-0.182656
  20
3.883332
  30
0.000000
  11
-0.172585
  21
3.893342
  31
0.000000
  0
LINE
  8
0
  10
-0.172585
  20
3.893342
  30
0.000000
  11
-0.164345
  21
3.906769
  31
0.000000
  0
LINE
  8
0
  10
-0.164345
  20
3.906769
  30
0.000000
  11
-0.158669
  21
3.922516
  31
0.000000
  0
LINE
  8
0
  10
-0.158669
  20
3.922516
  30
0.000000
  11
-0.156777
  21
3.939484
  31
0.000000
  0
LINE
  8
0
  10
-0.156777
  20
3.939484
  30
0.000000
  11
-0.159828
  21
3.959748
  31
0.000000
  0
LINE
  8
0
  10
-0.159828
  20
3.959748
  30
0.000000
  11
-0.168984
  21
3.977082
  31
0.000000
  0
LINE
  8
0
  10
-0.168984
  20
3.977082
  30
0.000000
  11
-0.183815
  21
3.990876
  31
0.000000
  0
LINE
  8
0
  10
-0.183815
  20
3.990876
  30
0.000000
  11
-0.203896
  21
4.000031
  31
0.000000
  0
LINE
  8
0
  10
-0.203896
  20
4.000031
  30
0.000000
  11
-0.188576
  21
4.009980
  31
0.000000
  0
LINE
  8
0
  10
-0.188576
  20
4.009980
  30
0.000000
  11
-0.177773
  21
4.022736
  31
0.000000
  0
LINE
  8
0
  10
-0.177773
  20
4.022736
  30
0.000000
  11
-0.171181
  21
4.037385
  31
0.000000
  0
LINE
  8
0
  10
-0.171181
  20
4.037385
  30
0.000000
  11
-0.168984
  21
4.053010
  31
0.000000
  0
LINE
  8
0
  10
-0.168984
  20
4.053010
  30
0.000000
  11
-0.171425
  21
4.069733
  31
0.000000
  0
LINE
  8
0
  10
-0.171425
  20
4.069733
  30
0.000000
  11
-0.178749
  21
4.085724
  31
0.000000
  0
LINE
  8
0
  10
-0.178749
  20
4.085724
  30
0.000000
  11
-0.190407
  21
4.099518
  31
0.000000
  0
LINE
  8
0
  10
-0.190407
  20
4.099518
  30
0.000000
  11
-0.205849
  21
4.109162
  31
0.000000
  0
LINE
  8
0
  10
-0.205849
  20
4.109162
  30
0.000000
  11
-0.225991
  21
4.115021
  31
0.000000
  0
LINE
  8
0
  10
-0.225991
  20
4.115021
  30
0.000000
  11
-0.251747
  21
4.116974
  31
0.000000
  0
LINE
  8
0
  10
-0.251747
  20
4.116974
  30
0.000000
  11
-0.345497
  21
4.116974
  31
0.000000
  0
LINE
  8
0
  10
-0.345497
  20
4.116974
  30
0.000000
  11
-0.345497
  21
3.866974
  31
0.000000
  0
LINE
  8
0
  10
-0.312538
  20
4.011994
  30
0.000000
  11
-0.312538
  21
4.087433
  31
0.000000
  0
LINE
  8
0
  10
-0.312538
  20
4.087433
  30
0.000000
  11
-0.262490
  21
4.087433
  31
0.000000
  0
LINE
  8
0
  10
-0.262490
  20
4.087433
  30
0.000000
  11
-0.239601
  21
4.086518
  31
0.000000
  0
LINE
  8
0
  10
-0.239601
  20
4.086518
  30
0.000000
  11
-0.224648
  21
4.083771
  31
0.000000
  0
LINE
  8
0
  10
-0.224648
  20
4.083771
  30
0.000000
  11
-0.214760
  21
4.078827
  31
0.000000
  0
LINE
  8
0
  10
-0.214760
  20
4.078827
  30
0.000000
  11
-0.207558
  21
4.070832
  31
0.000000
  0
LINE
  8
0
  10
-0.207558
  20
4.070832
  30
0.000000
  11
-0.202980
  21
4.060761
  31
0.000000
  0
LINE
  8
0
  10
-0.202980
  20
4.060761
  30
0.000000
  11
-0.201454
  21
4.049103
  31
0.000000
  0
LINE
  8
0
  10
-0.201454
  20
4.049103
  30
0.000000
  11
-0.203102
  21
4.037018
  31
0.000000
  0
LINE
  8
0
  10
-0.203102
  20
4.037018
  30
0.000000
  11
-0.208046
  21
4.027131
  31
0.000000
  0
LINE
  8
0
  10
-0.208046
  20
4.027131
  30
0.000000
  11
-0.215920
  21
4.019745
  31
0.000000
  0
LINE
  8
0
  10
-0.215920
  20
4.019745
  30
0.000000
  11
-0.226845
  21
4.014680
  31
0.000000
  0
LINE
  8
0
  10
-0.226845
  20
4.014680
  30
0.000000
  11
-0.239479
  21
4.012665
  31
0.000000
  0
LINE
  8
0
  10
-0.239479
  20
4.012665
  30
0.000000
  11
-0.258339
  21
4.011994
  31
0.000000
  0
LINE
  8
0
  10
-0.258339
  20
4.011994
  30
0.000000
  11
-0.312538
  21
4.011994
  31
0.000000
  0
LINE
  8
0
  10
-0.312538
  20
3.896515
  30
0.000000
  11
-0.312538
  21
3.982453
  31
0.000000
  0
LINE
  8
0
  10
-0.312538
  20
3.982453
  30
0.000000
  11
-0.254677
  21
3.982453
  31
0.000000
  0
LINE
  8
0
  10
-0.254677
  20
3.982453
  30
0.000000
  11
-0.233559
  21
3.981354
  31
0.000000
  0
LINE
  8
0
  10
-0.233559
  20
3.981354
  30
0.000000
  11
-0.218056
  21
3.978058
  31
0.000000
  0
LINE
  8
0
  10
-0.218056
  20
3.978058
  30
0.000000
  11
-0.206764
  21
3.972382
  31
0.000000
  0
LINE
  8
0
  10
-0.206764
  20
3.972382
  30
0.000000
  11
-0.198281
  21
3.963654
  31
0.000000
  0
LINE
  8
0
  10
-0.198281
  20
3.963654
  30
0.000000
  11
-0.192971
  21
3.952485
  31
0.000000
  0
LINE
  8
0
  10
-0.192971
  20
3.952485
  30
0.000000
  11
-0.191200
  21
3.939484
  31
0.000000
  0
LINE
  8
0
  10
-0.191200
  20
3.939484
  30
0.000000
  11
-0.192421
  21
3.928193
  31
0.000000
  0
LINE
  8
0
  10
-0.192421
  20
3.928193
  30
0.000000
  11
-0.196083
  21
3.918244
  31
0.000000
  0
LINE
  8
0
  10
-0.196083
  20
3.918244
  30
0.000000
  11
-0.201699
  21
3.910248
  31
0.000000
  0
LINE
  8
0
  10
-0.201699
  20
3.910248
  30
0.000000
  11
-0.208779
  21
3.904328
  31
0.000000
  0
LINE
  8
0
  10
-0.208779
  20
3.904328
  30
0.000000
  11
-0.217324
  21
3.900361
  31
0.000000
  0
LINE
  8
0
  10
-0.217324
  20
3.900361
  30
0.000000
  11
-0.227822
  21
3.897736
  31
0.000000
  0
LINE
  8
0
  10
-0.227822
  20
3.897736
  30
0.000000
  11
-0.236611
  21
3.896821
  31
0.000000
  0
LINE
  8
0
  10
-0.236611
  20
3.896821
  30
0.000000
  11
-0.250283
  21
3.896515
  31
0.000000
  0
LINE
  8
0
  10
-0.250283
  20
3.896515
  30
0.000000
  11
-0.312538
  21
3.896515
  31
0.000000
  0
LINE
  8
0
  10
-0.115029
  20
4.081574
  30
0.000000
  11
-0.084511
  21
4.081574
  31
0.000000
  0
LINE
  8
0
  10
-0.084511
  20
4.081574
  30
0.000000
  11
-0.084511
  21
4.116974
  31
0.000000
  0
LINE
  8
0
  10
-0.084511
  20
4.116974
  30
0.000000
  11
-0.115029
  21
4.116974
  31
0.000000
  0
LINE
  8
0
  10
-0.115029
  20
4.116974
  30
0.000000
  11
-0.115029
  21
4.081574
  31
0.000000
  0
LINE
  8
0
  10
-0.115029
  20
3.866974
  30
0.000000
  11
-0.084511
  21
3.866974
  31
0.000000
  0
LINE
  8
0
  10
-0.084511
  20
3.866974
  30
0.000000
  11
-0.084511
  21
4.048127
  31
0.000000
  0
LINE
  8
0
  10
-0.084511
  20
4.048127
  30
0.000000
  11
-0.115029
  21
4.048127
  31
0.000000
  0
LINE
  8
0
  10
-0.115029
  20
4.048127
  30
0.000000
  11
-0.115029
  21
3.866974
  31
0.000000
  0
LINE
  8
0
  10
0.029258
  20
3.894318
  30
0.000000
  11
0.021751
  21
3.893586
  31
0.000000
  0
LINE
  8
0
  10
0.021751
  20
3.893586
  30
0.000000
  11
0.015831
  21
3.893342
  31
0.000000
  0
LINE
  8
0
  10
0.015831
  20
3.893342
  30
0.000000
  11
0.009788
  21
3.893891
  31
0.000000
  0
LINE
  8
0
  10
0.009788
  20
3.893891
  30
0.000000
  11
0.005333
  21
3.895539
  31
0.000000
  0
LINE
  8
0
  10
0.005333
  20
3.895539
  30
0.000000
  11
0.002159
  21
3.898102
  31
0.000000
  0
LINE
  8
0
  10
0.002159
  20
3.898102
  30
0.000000
  11
-0.000038
  21
3.901398
  31
0.000000
  0
LINE
  8
0
  10
-0.000038
  20
3.901398
  30
0.000000
  11
-0.001137
  21
3.907441
  31
0.000000
  0
LINE
  8
0
  10
-0.001137
  20
3.907441
  30
0.000000
  11
-0.001503
  21
3.918244
  31
0.000000
  0
LINE
  8
0
  10
-0.001503
  20
3.918244
  30
0.000000
  11
-0.001503
  21
4.024201
  31
0.000000
  0
LINE
  8
0
  10
-0.001503
  20
4.024201
  30
0.000000
  11
0.029258
  21
4.024201
  31
0.000000
  0
LINE
  8
0
  10
0.029258
  20
4.024201
  30
0.000000
  11
0.029258
  21
4.048127
  31
0.000000
  0
LINE
  8
0
  10
0.029258
  20
4.048127
  30
0.000000
  11
-0.001503
  21
4.048127
  31
0.000000
  0
LINE
  8
0
  10
-0.001503
  20
4.048127
  30
0.000000
  11
-0.001503
  21
4.111359
  31
0.000000
  0
LINE
  8
0
  10
-0.001503
  20
4.111359
  30
0.000000
  11
-0.032021
  21
4.092805
  31
0.000000
  0
LINE
  8
0
  10
-0.032021
  20
4.092805
  30
0.000000
  11
-0.032021
  21
4.048127
  31
0.000000
  0
LINE
  8
0
  10
-0.032021
  20
4.048127
  30
0.000000
  11
-0.054482
  21
4.048127
  31
0.000000
  0
LINE
  8
0
  10
-0.054482
  20
4.048127
  30
0.000000
  11
-0.054482
  21
4.024201
  31
0.000000
  0
LINE
  8
0
  10
-0.054482
  20
4.024201
  30
0.000000
  11
-0.032021
  21
4.024201
  31
0.000000
  0
LINE
  8
0
  10
-0.032021
  20
4.024201
  30
0.000000
  11
-0.032021
  21
3.919953
  31
0.000000
  0
LINE
  8
0
  10
-0.032021
  20
3.919953
  30
0.000000
  11
-0.031105
  21
3.897126
  31
0.000000
  0
LINE
  8
0
  10
-0.031105
  20
3.897126
  30
0.000000
  11
-0.028359
  21
3.883820
  31
0.000000
  0
LINE
  8
0
  10
-0.028359
  20
3.883820
  30
0.000000
  11
-0.023171
  21
3.876069
  31
0.000000
  0
LINE
  8
0
  10
-0.023171
  20
3.876069
  30
0.000000
  11
-0.015419
  21
3.869904
  31
0.000000
  0
LINE
  8
0
  10
-0.015419
  20
3.869904
  30
0.000000
  11
-0.004311
  21
3.865876
  31
0.000000
  0
LINE
  8
0
  10
-0.004311
  20
3.865876
  30
0.000000
  11
0.010460
  21
3.864533
  31
0.000000
  0
LINE
  8
0
  10
0.010460
  20
3.864533
  30
0.000000
  11
0.021385
  21
3.865204
  31
0.000000
  0
LINE
  8
0
  10
0.021385
  20
3.865204
  30
0.000000
  11
0.033653
  21
3.867219
  31
0.000000
  0
LINE
  8
0
  10
0.033653
  20
3.867219
  30
0.000000
  11
0.029258
  21
3.894318
  31
0.000000
  0
LINE
  8
0
  10
0.160118
  20
3.866974
  30
0.000000
  11
0.250450
  21
3.866974
  31
0.000000
  0
LINE
  8
0
  10
0.250450
  20
3.866974
  30
0.000000
  11
0.271812
  21
3.868012
  31
0.000000
  0
LINE
  8
0
  10
0.271812
  20
3.868012
  30
0.000000
  11
0.290489
  21
3.871125
  31
0.000000
  0
LINE
  8
0
  10
0.290489
  20
3.871125
  30
0.000000
  11
0.306724
  21
3.876496
  31
0.000000
  0
LINE
  8
0
  10
0.306724
  20
3.876496
  30
0.000000
  11
0.320274
  21
3.883820
  31
0.000000
  0
LINE
  8
0
  10
0.320274
  20
3.883820
  30
0.000000
  11
0.332176
  21
3.893647
  31
0.000000
  0
LINE
  8
0
  10
0.332176
  20
3.893647
  30
0.000000
  11
0.342979
  21
3.906525
  31
0.000000
  0
LINE
  8
0
  10
0.342979
  20
3.906525
  30
0.000000
  11
0.352501
  21
3.922822
  31
0.000000
  0
LINE
  8
0
  10
0.352501
  20
3.922822
  30
0.000000
  11
0.360069
  21
3.942902
  31
0.000000
  0
LINE
  8
0
  10
0.360069
  20
3.942902
  30
0.000000
  11
0.365196
  21
3.966462
  31
0.000000
  0
LINE
  8
0
  10
0.365196
  20
3.966462
  30
0.000000
  11
0.366905
  21
3.993195
  31
0.000000
  0
LINE
  8
0
  10
0.366905
  20
3.993195
  30
0.000000
  11
0.364403
  21
4.024750
  31
0.000000
  0
LINE
  8
0
  10
0.364403
  20
4.024750
  30
0.000000
  11
0.356895
  21
4.052521
  31
0.000000
  0
LINE
  8
0
  10
0.356895
  20
4.052521
  30
0.000000
  11
0.344627
  21
4.076325
  31
0.000000
  0
LINE
  8
0
  10
0.344627
  20
4.076325
  30
0.000000
  11
0.327354
  21
4.095490
  31
0.000000
  0
LINE
  8
0
  10
0.327354
  20
4.095490
  30
0.000000
  11
0.310631
  21
4.106415
  31
0.000000
  0
LINE
  8
0
  10
0.310631
  20
4.106415
  30
0.000000
  11
0.290733
  21
4.113312
  31
0.000000
  0
LINE
  8
0
  10
0.290733
  20
4.113312
  30
0.000000
  11
0.271934
  21
4.116059
  31
0.000000
  0
LINE
  8
0
  10
0.271934
  20
4.116059
  30
0.000000
  11
0.246300
  21
4.116974
  31
0.000000
  0
LINE
  8
0
  10
0.246300
  20
4.116974
  30
0.000000
  11
0.160118
  21
4.116974
  31
0.000000
  0
LINE
  8
0
  10
0.160118
  20
4.116974
  30
0.000000
  11
0.160118
  21
3.866974
  31
0.000000
  0
LINE
  8
0
  10
0.193321
  20
3.896515
  30
0.000000
  11
0.193321
  21
4.087433
  31
0.000000
  0
LINE
  8
0
  10
0.193321
  20
4.087433
  30
0.000000
  11
0.245811
  21
4.087433
  31
0.000000
  0
LINE
  8
0
  10
0.245811
  20
4.087433
  30
0.000000
  11
0.271263
  21
4.086152
  31
0.000000
  0
LINE
  8
0
  10
0.271263
  20
4.086152
  30
0.000000
  11
0.288536
  21
4.082306
  31
0.000000
  0
LINE
  8
0
  10
0.288536
  20
4.082306
  30
0.000000
  11
0.305626
  21
4.071686
  31
0.000000
  0
LINE
  8
0
  10
0.305626
  20
4.071686
  30
0.000000
  11
0.319786
  21
4.053986
  31
0.000000
  0
LINE
  8
0
  10
0.319786
  20
4.053986
  30
0.000000
  11
0.329490
  21
4.028412
  31
0.000000
  0
LINE
  8
0
  10
0.329490
  20
4.028412
  30
0.000000
  11
0.332725
  21
3.993683
  31
0.000000
  0
LINE
  8
0
  10
0.332725
  20
3.993683
  30
0.000000
  11
0.331077
  21
3.967621
  31
0.000000
  0
LINE
  8
0
  10
0.331077
  20
3.967621
  30
0.000000
  11
0.326133
  21
3.945588
  31
0.000000
  0
LINE
  8
0
  10
0.326133
  20
3.945588
  30
0.000000
  11
0.318260
  21
3.927827
  31
0.000000
  0
LINE
  8
0
  10
0.318260
  20
3.927827
  30
0.000000
  11
0.307823
  21
3.914094
  31
0.000000
  0
LINE
  8
0
  10
0.307823
  20
3.914094
  30
0.000000
  11
0.298057
  21
3.906708
  31
0.000000
  0
LINE
  8
0
  10
0.298057
  20
3.906708
  30
0.000000
  11
0.285362
  21
3.901154
  31
0.000000
  0
LINE
  8
0
  10
0.285362
  20
3.901154
  30
0.000000
  11
0.268699
  21
3.897675
  31
0.000000
  0
LINE
  8
0
  10
0.268699
  20
3.897675
  30
0.000000
  11
0.246544
  21
3.896515
  31
0.000000
  0
LINE
  8
0
  10
0.246544
  20
3.896515
  30
0.000000
  11
0.193321
  21
3.896515
  31
0.000000
  0
LINE
  8
0
  10
0.408653
  20
4.081574
  30
0.000000
  11
0.439171
  21
4.081574
  31
0.000000
  0
LINE
  8
0
  10
0.439171
  20
4.081574
  30
0.000000
  11
0.439171
  21
4.116974
  31
0.000000
  0
LINE
  8
0
  10
0.439171
  20
4.116974
  30
0.000000
  11
0.408653
  21
4.116974
  31
0.000000
  0
LINE
  8
0
  10
0.408653
  20
4.116974
  30
0.000000
  11
0.408653
  21
4.081574
  31
0.000000
  0
LINE
  8
0
  10
0.408653
  20
3.866974
  30
0.000000
  11
0.439171
  21
3.866974
  31
0.000000
  0
LINE
  8
0
  10
0.439171
  20
3.866974
  30
0.000000
  11
0.439171
  21
4.048127
  31
0.000000
  0
LINE
  8
0
  10
0.439171
  20
4.048127
  30
0.000000
  11
0.408653
  21
4.048127
  31
0.000000
  0
LINE
  8
0
  10
0.408653
  20
4.048127
  30
0.000000
  11
0.408653
  21
3.866974
  31
0.000000
  0
LINE
  8
0
  10
0.604210
  20
3.889191
  30
0.000000
  11
0.606346
  21
3.877289
  31
0.000000
  0
LINE
  8
0
  10
0.606346
  20
3.877289
  30
0.000000
  11
0.610313
  21
3.866974
  31
0.000000
  0
LINE
  8
0
  10
0.610313
  20
3.866974
  30
0.000000
  11
0.642296
  21
3.866974
  31
0.000000
  0
LINE
  8
0
  10
0.642296
  20
3.866974
  30
0.000000
  11
0.637413
  21
3.877656
  31
0.000000
  0
LINE
  8
0
  10
0.637413
  20
3.877656
  30
0.000000
  11
0.634483
  21
3.888703
  31
0.000000
  0
LINE
  8
0
  10
0.634483
  20
3.888703
  30
0.000000
  11
0.633018
  21
3.907868
  31
0.000000
  0
LINE
  8
0
  10
0.633018
  20
3.907868
  30
0.000000
  11
0.632530
  21
3.942902
  31
0.000000
  0
LINE
  8
0
  10
0.632530
  20
3.942902
  30
0.000000
  11
0.632530
  21
3.983674
  31
0.000000
  0
LINE
  8
0
  10
0.632530
  20
3.983674
  30
0.000000
  11
0.632164
  21
4.001008
  31
0.000000
  0
LINE
  8
0
  10
0.632164
  20
4.001008
  30
0.000000
  11
0.631065
  21
4.011994
  31
0.000000
  0
LINE
  8
0
  10
0.631065
  20
4.011994
  30
0.000000
  11
0.627342
  21
4.023591
  31
0.000000
  0
LINE
  8
0
  10
0.627342
  20
4.023591
  30
0.000000
  11
0.621544
  21
4.032990
  31
0.000000
  0
LINE
  8
0
  10
0.621544
  20
4.032990
  30
0.000000
  11
0.612755
  21
4.040558
  31
0.000000
  0
LINE
  8
0
  10
0.612755
  20
4.040558
  30
0.000000
  11
0.600059
  21
4.046662
  31
0.000000
  0
LINE
  8
0
  10
0.600059
  20
4.046662
  30
0.000000
  11
0.583458
  21
4.050690
  31
0.000000
  0
LINE
  8
0
  10
0.583458
  20
4.050690
  30
0.000000
  11
0.562462
  21
4.052033
  31
0.000000
  0
LINE
  8
0
  10
0.562462
  20
4.052033
  30
0.000000
  11
0.540611
  21
4.050446
  31
0.000000
  0
LINE
  8
0
  10
0.540611
  20
4.050446
  30
0.000000
  11
0.521446
  21
4.045685
  31
0.000000
  0
LINE
  8
0
  10
0.521446
  20
4.045685
  30
0.000000
  11
0.505760
  21
4.037934
  31
0.000000
  0
LINE
  8
0
  10
0.505760
  20
4.037934
  30
0.000000
  11
0.494346
  21
4.027375
  31
0.000000
  0
LINE
  8
0
  10
0.494346
  20
4.027375
  30
0.000000
  11
0.486351
  21
4.013764
  31
0.000000
  0
LINE
  8
0
  10
0.486351
  20
4.013764
  30
0.000000
  11
0.480919
  21
3.996369
  31
0.000000
  0
LINE
  8
0
  10
0.480919
  20
3.996369
  30
0.000000
  11
0.510948
  21
3.992219
  31
0.000000
  0
LINE
  8
0
  10
0.510948
  20
3.992219
  30
0.000000
  11
0.517174
  21
4.008576
  31
0.000000
  0
LINE
  8
0
  10
0.517174
  20
4.008576
  30
0.000000
  11
0.526085
  21
4.019074
  31
0.000000
  0
LINE
  8
0
  10
0.526085
  20
4.019074
  30
0.000000
  11
0.539207
  21
4.024750
  31
0.000000
  0
LINE
  8
0
  10
0.539207
  20
4.024750
  30
0.000000
  11
0.558067
  21
4.026642
  31
0.000000
  0
LINE
  8
0
  10
0.558067
  20
4.026642
  30
0.000000
  11
0.578392
  21
4.024079
  31
0.000000
  0
LINE
  8
0
  10
0.578392
  20
4.024079
  30
0.000000
  11
0.592979
  21
4.016389
  31
0.000000
  0
LINE
  8
0
  10
0.592979
  20
4.016389
  30
0.000000
  11
0.599571
  21
4.005829
  31
0.000000
  0
LINE
  8
0
  10
0.599571
  20
4.005829
  30
0.000000
  11
0.601768
  21
3.989777
  31
0.000000
  0
LINE
  8
0
  10
0.601768
  20
3.989777
  30
0.000000
  11
0.601707
  21
3.986970
  31
0.000000
  0
LINE
  8
0
  10
0.601707
  20
3.986970
  30
0.000000
  11
0.601524
  21
3.981965
  31
0.000000
  0
LINE
  8
0
  10
0.601524
  20
3.981965
  30
0.000000
  11
0.579063
  21
3.976105
  31
0.000000
  0
LINE
  8
0
  10
0.579063
  20
3.976105
  30
0.000000
  11
0.546837
  21
3.971223
  31
0.000000
  0
LINE
  8
0
  10
0.546837
  20
3.971223
  30
0.000000
  11
0.530845
  21
3.968964
  31
0.000000
  0
LINE
  8
0
  10
0.530845
  20
3.968964
  30
0.000000
  11
0.519493
  21
3.966584
  31
0.000000
  0
LINE
  8
0
  10
0.519493
  20
3.966584
  30
0.000000
  11
0.507896
  21
3.962494
  31
0.000000
  0
LINE
  8
0
  10
0.507896
  20
3.962494
  30
0.000000
  11
0.497520
  21
3.956574
  31
0.000000
  0
LINE
  8
0
  10
0.497520
  20
3.956574
  30
0.000000
  11
0.488670
  21
3.948884
  31
0.000000
  0
LINE
  8
0
  10
0.488670
  20
3.948884
  30
0.000000
  11
0.481651
  21
3.938996
  31
0.000000
  0
LINE
  8
0
  10
0.481651
  20
3.938996
  30
0.000000
  11
0.477073
  21
3.927460
  31
0.000000
  0
LINE
  8
0
  10
0.477073
  20
3.927460
  30
0.000000
  11
0.475548
  21
3.914826
  31
0.000000
  0
LINE
  8
0
  10
0.475548
  20
3.914826
  30
0.000000
  11
0.479515
  21
3.894135
  31
0.000000
  0
LINE
  8
0
  10
0.479515
  20
3.894135
  30
0.000000
  11
0.491417
  21
3.877473
  31
0.000000
  0
LINE
  8
0
  10
0.491417
  20
3.877473
  30
0.000000
  11
0.511009
  21
3.866486
  31
0.000000
  0
LINE
  8
0
  10
0.511009
  20
3.866486
  30
0.000000
  11
0.537559
  21
3.862824
  31
0.000000
  0
LINE
  8
0
  10
0.537559
  20
3.862824
  30
0.000000
  11
0.555015
  21
3.864289
  31
0.000000
  0
LINE
  8
0
  10
0.555015
  20
3.864289
  30
0.000000
  11
0.571251
  21
3.868683
  31
0.000000
  0
LINE
  8
0
  10
0.571251
  20
3.868683
  30
0.000000
  11
0.587425
  21
3.876862
  31
0.000000
  0
LINE
  8
0
  10
0.587425
  20
3.876862
  30
0.000000
  11
0.604210
  21
3.889191
  31
0.000000
  0
LINE
  8
0
  10
0.601524
  20
3.957795
  30
0.000000
  11
0.601524
  21
3.946564
  31
0.000000
  0
LINE
  8
0
  10
0.601524
  20
3.946564
  30
0.000000
  11
0.600303
  21
3.928742
  31
0.000000
  0
LINE
  8
0
  10
0.600303
  20
3.928742
  30
0.000000
  11
0.596641
  21
3.915803
  31
0.000000
  0
LINE
  8
0
  10
0.596641
  20
3.915803
  30
0.000000
  11
0.588218
  21
3.903779
  31
0.000000
  0
LINE
  8
0
  10
0.588218
  20
3.903779
  30
0.000000
  11
0.576134
  21
3.894562
  31
0.000000
  0
LINE
  8
0
  10
0.576134
  20
3.894562
  30
0.000000
  11
0.561485
  21
3.888886
  31
0.000000
  0
LINE
  8
0
  10
0.561485
  20
3.888886
  30
0.000000
  11
0.544884
  21
3.886994
  31
0.000000
  0
LINE
  8
0
  10
0.544884
  20
3.886994
  30
0.000000
  11
0.529014
  21
3.889008
  31
0.000000
  0
LINE
  8
0
  10
0.529014
  20
3.889008
  30
0.000000
  11
0.517540
  21
3.895051
  31
0.000000
  0
LINE
  8
0
  10
0.517540
  20
3.895051
  30
0.000000
  11
0.510582
  21
3.904328
  31
0.000000
  0
LINE
  8
0
  10
0.510582
  20
3.904328
  30
0.000000
  11
0.508262
  21
3.915558
  31
0.000000
  0
LINE
  8
0
  10
0.508262
  20
3.915558
  30
0.000000
  11
0.509300
  21
3.923249
  31
0.000000
  0
LINE
  8
0
  10
0.509300
  20
3.923249
  30
0.000000
  11
0.512413
  21
3.930207
  31
0.000000
  0
LINE
  8
0
  10
0.512413
  20
3.930207
  30
0.000000
  11
0.517662
  21
3.936005
  31
0.000000
  0
LINE
  8
0
  10
0.517662
  20
3.936005
  30
0.000000
  11
0.524620
  21
3.940217
  31
0.000000
  0
LINE
  8
0
  10
0.524620
  20
3.940217
  30
0.000000
  11
0.535240
  21
3.943452
  31
0.000000
  0
LINE
  8
0
  10
0.535240
  20
3.943452
  30
0.000000
  11
0.551475
  21
3.946320
  31
0.000000
  0
LINE
  8
0
  10
0.551475
  20
3.946320
  30
0.000000
  11
0.580711
  21
3.951508
  31
0.000000
  0
LINE
  8
0
  10
0.580711
  20
3.951508
  30
0.000000
  11
0.601524
  21
3.957795
  31
0.000000
  0
LINE
  8
0
  10
0.680137
  20
3.866974
  30
0.000000
  11
0.710899
  21
3.866974
  31
0.000000
  0
LINE
  8
0
  10
0.710899
  20
3.866974
  30
0.000000
  11
0.710899
  21
3.960969
  31
0.000000
  0
LINE
  8
0
  10
0.710899
  20
3.960969
  30
0.000000
  11
0.712120
  21
3.982758
  31
0.000000
  0
LINE
  8
0
  10
0.712120
  20
3.982758
  30
0.000000
  11
0.715782
  21
3.998810
  31
0.000000
  0
LINE
  8
0
  10
0.715782
  20
3.998810
  30
0.000000
  11
0.722191
  21
4.010346
  31
0.000000
  0
LINE
  8
0
  10
0.722191
  20
4.010346
  30
0.000000
  11
0.731651
  21
4.018586
  31
0.000000
  0
LINE
  8
0
  10
0.731651
  20
4.018586
  30
0.000000
  11
0.743126
  21
4.023713
  31
0.000000
  0
LINE
  8
0
  10
0.743126
  20
4.023713
  30
0.000000
  11
0.755577
  21
4.025422
  31
0.000000
  0
LINE
  8
0
  10
0.755577
  20
4.025422
  30
0.000000
  11
0.770286
  21
4.022858
  31
0.000000
  0
LINE
  8
0
  10
0.770286
  20
4.022858
  30
0.000000
  11
0.780235
  21
4.015168
  31
0.000000
  0
LINE
  8
0
  10
0.780235
  20
4.015168
  30
0.000000
  11
0.785911
  21
4.002534
  31
0.000000
  0
LINE
  8
0
  10
0.785911
  20
4.002534
  30
0.000000
  11
0.787803
  21
3.984650
  31
0.000000
  0
LINE
  8
0
  10
0.787803
  20
3.984650
  30
0.000000
  11
0.787803
  21
3.866974
  31
0.000000
  0
LINE
  8
0
  10
0.787803
  20
3.866974
  30
0.000000
  11
0.818321
  21
3.866974
  31
0.000000
  0
LINE
  8
0
  10
0.818321
  20
3.866974
  30
0.000000
  11
0.818321
  21
3.972199
  31
0.000000
  0
LINE
  8
0
  10
0.818321
  20
3.972199
  30
0.000000
  11
0.821495
  21
3.996247
  31
0.000000
  0
LINE
  8
0
  10
0.821495
  20
3.996247
  30
0.000000
  11
0.831016
  21
4.012726
  31
0.000000
  0
LINE
  8
0
  10
0.831016
  20
4.012726
  30
0.000000
  11
0.845299
  21
4.022248
  31
0.000000
  0
LINE
  8
0
  10
0.845299
  20
4.022248
  30
0.000000
  11
0.862755
  21
4.025422
  31
0.000000
  0
LINE
  8
0
  10
0.862755
  20
4.025422
  30
0.000000
  11
0.872581
  21
4.024201
  31
0.000000
  0
LINE
  8
0
  10
0.872581
  20
4.024201
  30
0.000000
  11
0.881065
  21
4.020539
  31
0.000000
  0
LINE
  8
0
  10
0.881065
  20
4.020539
  30
0.000000
  11
0.887657
  21
4.014863
  31
0.000000
  0
LINE
  8
0
  10
0.887657
  20
4.014863
  30
0.000000
  11
0.891807
  21
4.007599
  31
0.000000
  0
LINE
  8
0
  10
0.891807
  20
4.007599
  30
0.000000
  11
0.894188
  21
3.996918
  31
0.000000
  0
LINE
  8
0
  10
0.894188
  20
3.996918
  30
0.000000
  11
0.894981
  21
3.980988
  31
0.000000
  0
LINE
  8
0
  10
0.894981
  20
3.980988
  30
0.000000
  11
0.894981
  21
3.866974
  31
0.000000
  0
LINE
  8
0
  10
0.894981
  20
3.866974
  30
0.000000
  11
0.925499
  21
3.866974
  31
0.000000
  0
LINE
  8
0
  10
0.925499
  20
3.866974
  30
0.000000
  11
0.925499
  21
3.991242
  31
0.000000
  0
LINE
  8
0
  10
0.925499
  20
3.991242
  30
0.000000
  11
0.921837
  21
4.018220
  31
0.000000
  0
LINE
  8
0
  10
0.921837
  20
4.018220
  30
0.000000
  11
0.910850
  21
4.037140
  31
0.000000
  0
LINE
  8
0
  10
0.910850
  20
4.037140
  30
0.000000
  11
0.893333
  21
4.048310
  31
0.000000
  0
LINE
  8
0
  10
0.893333
  20
4.048310
  30
0.000000
  11
0.869591
  21
4.052033
  31
0.000000
  0
LINE
  8
0
  10
0.869591
  20
4.052033
  30
0.000000
  11
0.838402
  21
4.044098
  31
0.000000
  0
LINE
  8
0
  10
0.838402
  20
4.044098
  30
0.000000
  11
0.813682
  21
4.020295
  31
0.000000
  0
LINE
  8
0
  10
0.813682
  20
4.020295
  30
0.000000
  11
0.806419
  21
4.033723
  31
0.000000
  0
LINE
  8
0
  10
0.806419
  20
4.033723
  30
0.000000
  11
0.795372
  21
4.043732
  31
0.000000
  0
LINE
  8
0
  10
0.795372
  20
4.043732
  30
0.000000
  11
0.780784
  21
4.049958
  31
0.000000
  0
LINE
  8
0
  10
0.780784
  20
4.049958
  30
0.000000
  11
0.762413
  21
4.052033
  31
0.000000
  0
LINE
  8
0
  10
0.762413
  20
4.052033
  30
0.000000
  11
0.745323
  21
4.050019
  31
0.000000
  0
LINE
  8
0
  10
0.745323
  20
4.050019
  30
0.000000
  11
0.730186
  21
4.043976
  31
0.000000
  0
LINE
  8
0
  10
0.730186
  20
4.043976
  30
0.000000
  11
0.717430
  21
4.034577
  31
0.000000
  0
LINE
  8
0
  10
0.717430
  20
4.034577
  30
0.000000
  11
0.707481
  21
4.022492
  31
0.000000
  0
LINE
  8
0
  10
0.707481
  20
4.022492
  30
0.000000
  11
0.707481
  21
4.048127
  31
0.000000
  0
LINE
  8
0
  10
0.707481
  20
4.048127
  30
0.000000
  11
0.680137
  21
4.048127
  31
0.000000
  0
LINE
  8
0
  10
0.680137
  20
4.048127
  30
0.000000
  11
0.680137
  21
3.866974
  31
0.000000
  0
LINE
  8
0
  10
1.094932
  20
3.925324
  30
0.000000
  11
1.086632
  21
3.908478
  31
0.000000
  0
LINE
  8
0
  10
1.086632
  20
3.908478
  30
0.000000
  11
1.075889
  21
3.897004
  31
0.000000
  0
LINE
  8
0
  10
1.075889
  20
3.897004
  30
0.000000
  11
1.062828
  21
3.890412
  31
0.000000
  0
LINE
  8
0
  10
1.062828
  20
3.890412
  30
0.000000
  11
1.047081
  21
3.888215
  31
0.000000
  0
LINE
  8
0
  10
1.047081
  20
3.888215
  30
0.000000
  11
1.026390
  21
3.892121
  31
0.000000
  0
LINE
  8
0
  10
1.026390
  20
3.892121
  30
0.000000
  11
1.009239
  21
3.903840
  31
0.000000
  0
LINE
  8
0
  10
1.009239
  20
3.903840
  30
0.000000
  11
0.997459
  21
3.923249
  31
0.000000
  0
LINE
  8
0
  10
0.997459
  20
3.923249
  30
0.000000
  11
0.992393
  21
3.949738
  31
0.000000
  0
LINE
  8
0
  10
0.992393
  20
3.949738
  30
0.000000
  11
1.127403
  21
3.949738
  31
0.000000
  0
LINE
  8
0
  10
1.127403
  20
3.949738
  30
0.000000
  11
1.127586
  21
3.954438
  31
0.000000
  0
LINE
  8
0
  10
1.127586
  20
3.954438
  30
0.000000
  11
1.127647
  21
3.957795
  31
0.000000
  0
LINE
  8
0
  10
1.127647
  20
3.957795
  30
0.000000
  11
1.121849
  21
3.997651
  31
0.000000
  0
LINE
  8
0
  10
1.121849
  20
3.997651
  30
0.000000
  11
1.104454
  21
4.027375
  31
0.000000
  0
LINE
  8
0
  10
1.104454
  20
4.027375
  30
0.000000
  11
1.078209
  21
4.045869
  31
0.000000
  0
LINE
  8
0
  10
1.078209
  20
4.045869
  30
0.000000
  11
1.045372
  21
4.052033
  31
0.000000
  0
LINE
  8
0
  10
1.045372
  20
4.052033
  30
0.000000
  11
1.011253
  21
4.045746
  31
0.000000
  0
LINE
  8
0
  10
1.011253
  20
4.045746
  30
0.000000
  11
0.984092
  21
4.026887
  31
0.000000
  0
LINE
  8
0
  10
0.984092
  20
4.026887
  30
0.000000
  11
0.966514
  21
3.996552
  31
0.000000
  0
LINE
  8
0
  10
0.966514
  20
3.996552
  30
0.000000
  11
0.960655
  21
3.955842
  31
0.000000
  0
LINE
  8
0
  10
0.960655
  20
3.955842
  30
0.000000
  11
0.966453
  21
3.916718
  31
0.000000
  0
LINE
  8
0
  10
0.966453
  20
3.916718
  30
0.000000
  11
0.983848
  21
3.887238
  31
0.000000
  0
LINE
  8
0
  10
0.983848
  20
3.887238
  30
0.000000
  11
1.011375
  21
3.868928
  31
0.000000
  0
LINE
  8
0
  10
1.011375
  20
3.868928
  30
0.000000
  11
1.047081
  21
3.862824
  31
0.000000
  0
LINE
  8
0
  10
1.047081
  20
3.862824
  30
0.000000
  11
1.075767
  21
3.866669
  31
0.000000
  0
LINE
  8
0
  10
1.075767
  20
3.866669
  30
0.000000
  11
1.098839
  21
3.878205
  31
0.000000
  0
LINE
  8
0
  10
1.098839
  20
3.878205
  30
0.000000
  11
1.115928
  21
3.896699
  31
0.000000
  0
LINE
  8
0
  10
1.115928
  20
3.896699
  30
0.000000
  11
1.126671
  21
3.921418
  31
0.000000
  0
LINE
  8
0
  10
1.126671
  20
3.921418
  30
0.000000
  11
1.094932
  21
3.925324
  31
0.000000
  0
LINE
  8
0
  10
0.994102
  20
3.974885
  30
0.000000
  11
0.998985
  21
3.996186
  31
0.000000
  0
LINE
  8
0
  10
0.998985
  20
3.996186
  30
0.000000
  11
1.010216
  21
4.012726
  31
0.000000
  0
LINE
  8
0
  10
1.010216
  20
4.012726
  30
0.000000
  11
1.026268
  21
4.023347
  31
0.000000
  0
LINE
  8
0
  10
1.026268
  20
4.023347
  30
0.000000
  11
1.045616
  21
4.026887
  31
0.000000
  0
LINE
  8
0
  10
1.045616
  20
4.026887
  30
0.000000
  11
1.066856
  21
4.022431
  31
0.000000
  0
LINE
  8
0
  10
1.066856
  20
4.022431
  30
0.000000
  11
1.083702
  21
4.009064
  31
0.000000
  0
LINE
  8
0
  10
1.083702
  20
4.009064
  30
0.000000
  11
1.091331
  21
3.994904
  31
0.000000
  0
LINE
  8
0
  10
1.091331
  20
3.994904
  30
0.000000
  11
1.095176
  21
3.974885
  31
0.000000
  0
LINE
  8
0
  10
1.095176
  20
3.974885
  30
0.000000
  11
0.994102
  21
3.974885
  31
0.000000
  0
LINE
  8
0
  10
1.232139
  20
3.894318
  30
0.000000
  11
1.224632
  21
3.893586
  31
0.000000
  0
LINE
  8
0
  10
1.224632
  20
3.893586
  30
0.000000
  11
1.218712
  21
3.893342
  31
0.000000
  0
LINE
  8
0
  10
1.218712
  20
3.893342
  30
0.000000
  11
1.212669
  21
3.893891
  31
0.000000
  0
LINE
  8
0
  10
1.212669
  20
3.893891
  30
0.000000
  11
1.208214
  21
3.895539
  31
0.000000
  0
LINE
  8
0
  10
1.208214
  20
3.895539
  30
0.000000
  11
1.205040
  21
3.898102
  31
0.000000
  0
LINE
  8
0
  10
1.205040
  20
3.898102
  30
0.000000
  11
1.202842
  21
3.901398
  31
0.000000
  0
LINE
  8
0
  10
1.202842
  20
3.901398
  30
0.000000
  11
1.201744
  21
3.907441
  31
0.000000
  0
LINE
  8
0
  10
1.201744
  20
3.907441
  30
0.000000
  11
1.201378
  21
3.918244
  31
0.000000
  0
LINE
  8
0
  10
1.201378
  20
3.918244
  30
0.000000
  11
1.201378
  21
4.024201
  31
0.000000
  0
LINE
  8
0
  10
1.201378
  20
4.024201
  30
0.000000
  11
1.232139
  21
4.024201
  31
0.000000
  0
LINE
  8
0
  10
1.232139
  20
4.024201
  30
0.000000
  11
1.232139
  21
4.048127
  31
0.000000
  0
LINE
  8
0
  10
1.232139
  20
4.048127
  30
0.000000
  11
1.201378
  21
4.048127
  31
0.000000
  0
LINE
  8
0
  10
1.201378
  20
4.048127
  30
0.000000
  11
1.201378
  21
4.111359
  31
0.000000
  0
LINE
  8
0
  10
1.201378
  20
4.111359
  30
0.000000
  11
1.170860
  21
4.092805
  31
0.000000
  0
LINE
  8
0
  10
1.170860
  20
4.092805
  30
0.000000
  11
1.170860
  21
4.048127
  31
0.000000
  0
LINE
  8
0
  10
1.170860
  20
4.048127
  30
0.000000
  11
1.148155
  21
4.048127
  31
0.000000
  0
LINE
  8
0
  10
1.148155
  20
4.048127
  30
0.000000
  11
1.148155
  21
4.024201
  31
0.000000
  0
LINE
  8
0
  10
1.148155
  20
4.024201
  30
0.000000
  11
1.170860
  21
4.024201
  31
0.000000
  0
LINE
  8
0
  10
1.170860
  20
4.024201
  30
0.000000
  11
1.170860
  21
3.919953
  31
0.000000
  0
LINE
  8
0
  10
1.170860
  20
3.919953
  30
0.000000
  11
1.171776
  21
3.897126
  31
0.000000
  0
LINE
  8
0
  10
1.171776
  20
3.897126
  30
0.000000
  11
1.174522
  21
3.883820
  31
0.000000
  0
LINE
  8
0
  10
1.174522
  20
3.883820
  30
0.000000
  11
1.179588
  21
3.876069
  31
0.000000
  0
LINE
  8
0
  10
1.179588
  20
3.876069
  30
0.000000
  11
1.187462
  21
3.869904
  31
0.000000
  0
LINE
  8
0
  10
1.187462
  20
3.869904
  30
0.000000
  11
1.198570
  21
3.865876
  31
0.000000
  0
LINE
  8
0
  10
1.198570
  20
3.865876
  30
0.000000
  11
1.213341
  21
3.864533
  31
0.000000
  0
LINE
  8
0
  10
1.213341
  20
3.864533
  30
0.000000
  11
1.224266
  21
3.865204
  31
0.000000
  0
LINE
  8
0
  10
1.224266
  20
3.865204
  30
0.000000
  11
1.236534
  21
3.867219
  31
0.000000
  0
LINE
  8
0
  10
1.236534
  20
3.867219
  30
0.000000
  11
1.232139
  21
3.894318
  31
0.000000
  0
LINE
  8
0
  10
1.385948
  20
3.925324
  30
0.000000
  11
1.377830
  21
3.908478
  31
0.000000
  0
LINE
  8
0
  10
1.377830
  20
3.908478
  30
0.000000
  11
1.367149
  21
3.897004
  31
0.000000
  0
LINE
  8
0
  10
1.367149
  20
3.897004
  30
0.000000
  11
1.353966
  21
3.890412
  31
0.000000
  0
LINE
  8
0
  10
1.353966
  20
3.890412
  30
0.000000
  11
1.338341
  21
3.888215
  31
0.000000
  0
LINE
  8
0
  10
1.338341
  20
3.888215
  30
0.000000
  11
1.317528
  21
3.892121
  31
0.000000
  0
LINE
  8
0
  10
1.317528
  20
3.892121
  30
0.000000
  11
1.300499
  21
3.903840
  31
0.000000
  0
LINE
  8
0
  10
1.300499
  20
3.903840
  30
0.000000
  11
1.288719
  21
3.923249
  31
0.000000
  0
LINE
  8
0
  10
1.288719
  20
3.923249
  30
0.000000
  11
1.283653
  21
3.949738
  31
0.000000
  0
LINE
  8
0
  10
1.283653
  20
3.949738
  30
0.000000
  11
1.418663
  21
3.949738
  31
0.000000
  0
LINE
  8
0
  10
1.418663
  20
3.949738
  30
0.000000
  11
1.418846
  21
3.954438
  31
0.000000
  0
LINE
  8
0
  10
1.418846
  20
3.954438
  30
0.000000
  11
1.418907
  21
3.957795
  31
0.000000
  0
LINE
  8
0
  10
1.418907
  20
3.957795
  30
0.000000
  11
1.413109
  21
3.997651
  31
0.000000
  0
LINE
  8
0
  10
1.413109
  20
3.997651
  30
0.000000
  11
1.395714
  21
4.027375
  31
0.000000
  0
LINE
  8
0
  10
1.395714
  20
4.027375
  30
0.000000
  11
1.369407
  21
4.045869
  31
0.000000
  0
LINE
  8
0
  10
1.369407
  20
4.045869
  30
0.000000
  11
1.336387
  21
4.052033
  31
0.000000
  0
LINE
  8
0
  10
1.336387
  20
4.052033
  30
0.000000
  11
1.302452
  21
4.045746
  31
0.000000
  0
LINE
  8
0
  10
1.302452
  20
4.045746
  30
0.000000
  11
1.275352
  21
4.026887
  31
0.000000
  0
LINE
  8
0
  10
1.275352
  20
4.026887
  30
0.000000
  11
1.257774
  21
3.996552
  31
0.000000
  0
LINE
  8
0
  10
1.257774
  20
3.996552
  30
0.000000
  11
1.251915
  21
3.955842
  31
0.000000
  0
LINE
  8
0
  10
1.251915
  20
3.955842
  30
0.000000
  11
1.257713
  21
3.916718
  31
0.000000
  0
LINE
  8
0
  10
1.257713
  20
3.916718
  30
0.000000
  11
1.275108
  21
3.887238
  31
0.000000
  0
LINE
  8
0
  10
1.275108
  20
3.887238
  30
0.000000
  11
1.302574
  21
3.868928
  31
0.000000
  0
LINE
  8
0
  10
1.302574
  20
3.868928
  30
0.000000
  11
1.338096
  21
3.862824
  31
0.000000
  0
LINE
  8
0
  10
1.338096
  20
3.862824
  30
0.000000
  11
1.366783
  21
3.866669
  31
0.000000
  0
LINE
  8
0
  10
1.366783
  20
3.866669
  30
0.000000
  11
1.389854
  21
3.878205
  31
0.000000
  0
LINE
  8
0
  10
1.389854
  20
3.878205
  30
0.000000
  11
1.407066
  21
3.896699
  31
0.000000
  0
LINE
  8
0
  10
1.407066
  20
3.896699
  30
0.000000
  11
1.417686
  21
3.921418
  31
0.000000
  0
LINE
  8
0
  10
1.417686
  20
3.921418
  30
0.000000
  11
1.385948
  21
3.925324
  31
0.000000
  0
LINE
  8
0
  10
1.285362
  20
3.974885
  30
0.000000
  11
1.290062
  21
3.996186
  31
0.000000
  0
LINE
  8
0
  10
1.290062
  20
3.996186
  30
0.000000
  11
1.301231
  21
4.012726
  31
0.000000
  0
LINE
  8
0
  10
1.301231
  20
4.012726
  30
0.000000
  11
1.317344
  21
4.023347
  31
0.000000
  0
LINE
  8
0
  10
1.317344
  20
4.023347
  30
0.000000
  11
1.336876
  21
4.026887
  31
0.000000
  0
LINE
  8
0
  10
1.336876
  20
4.026887
  30
0.000000
  11
1.357933
  21
4.022431
  31
0.000000
  0
LINE
  8
0
  10
1.357933
  20
4.022431
  30
0.000000
  11
1.374717
  21
4.009064
  31
0.000000
  0
LINE
  8
0
  10
1.374717
  20
4.009064
  30
0.000000
  11
1.382408
  21
3.994904
  31
0.000000
  0
LINE
  8
0
  10
1.382408
  20
3.994904
  30
0.000000
  11
1.386436
  21
3.974885
  31
0.000000
  0
LINE
  8
0
  10
1.386436
  20
3.974885
  30
0.000000
  11
1.285362
  21
3.974885
  31
0.000000
  0
LINE
  8
0
  10
1.456016
  20
3.866974
  30
0.000000
  11
1.486534
  21
3.866974
  31
0.000000
  0
LINE
  8
0
  10
1.486534
  20
3.866974
  30
0.000000
  11
1.486534
  21
3.961701
  31
0.000000
  0
LINE
  8
0
  10
1.486534
  20
3.961701
  30
0.000000
  11
1.487816
  21
3.980439
  31
0.000000
  0
LINE
  8
0
  10
1.487816
  20
3.980439
  30
0.000000
  11
1.491661
  21
3.997590
  31
0.000000
  0
LINE
  8
0
  10
1.491661
  20
3.997590
  30
0.000000
  11
1.496238
  21
4.007111
  31
0.000000
  0
LINE
  8
0
  10
1.496238
  20
4.007111
  30
0.000000
  11
1.503135
  21
4.014191
  31
0.000000
  0
LINE
  8
0
  10
1.503135
  20
4.014191
  30
0.000000
  11
1.511680
  21
4.018769
  31
0.000000
  0
LINE
  8
0
  10
1.511680
  20
4.018769
  30
0.000000
  11
1.521202
  21
4.020295
  31
0.000000
  0
LINE
  8
0
  10
1.521202
  20
4.020295
  30
0.000000
  11
1.532432
  21
4.018647
  31
0.000000
  0
LINE
  8
0
  10
1.532432
  20
4.018647
  30
0.000000
  11
1.543663
  21
4.013703
  31
0.000000
  0
LINE
  8
0
  10
1.543663
  20
4.013703
  30
0.000000
  11
1.554405
  21
4.042267
  31
0.000000
  0
LINE
  8
0
  10
1.554405
  20
4.042267
  30
0.000000
  11
1.538414
  21
4.049592
  31
0.000000
  0
LINE
  8
0
  10
1.538414
  20
4.049592
  30
0.000000
  11
1.522667
  21
4.052033
  31
0.000000
  0
LINE
  8
0
  10
1.522667
  20
4.052033
  30
0.000000
  11
1.512352
  21
4.050507
  31
0.000000
  0
LINE
  8
0
  10
1.512352
  20
4.050507
  30
0.000000
  11
1.502891
  21
4.045930
  31
0.000000
  0
LINE
  8
0
  10
1.502891
  20
4.045930
  30
0.000000
  11
1.493675
  21
4.036530
  31
0.000000
  0
LINE
  8
0
  10
1.493675
  20
4.036530
  30
0.000000
  11
1.483604
  21
4.020539
  31
0.000000
  0
LINE
  8
0
  10
1.483604
  20
4.020539
  30
0.000000
  11
1.483604
  21
4.048127
  31
0.000000
  0
LINE
  8
0
  10
1.483604
  20
4.048127
  30
0.000000
  11
1.456016
  21
4.048127
  31
0.000000
  0
LINE
  8
0
  10
1.456016
  20
4.048127
  30
0.000000
  11
1.456016
  21
3.866974
  31
0.000000
  0
LINE
  8
0
  10
-0.354286
  20
3.488801
  30
0.000000
  11
-0.350746
  21
3.456696
  31
0.000000
  0
LINE
  8
0
  10
-0.350746
  20
3.456696
  30
0.000000
  11
-0.340126
  21
3.426301
  31
0.000000
  0
LINE
  8
0
  10
-0.340126
  20
3.426301
  30
0.000000
  11
-0.322365
  21
3.399872
  31
0.000000
  0
LINE
  8
0
  10
-0.322365
  20
3.399872
  30
0.000000
  11
-0.297890
  21
3.379670
  31
0.000000
  0
LINE
  8
0
  10
-0.297890
  20
3.379670
  30
0.000000
  11
-0.268166
  21
3.367035
  31
0.000000
  0
LINE
  8
0
  10
-0.268166
  20
3.367035
  30
0.000000
  11
-0.234658
  21
3.362824
  31
0.000000
  0
LINE
  8
0
  10
-0.234658
  20
3.362824
  30
0.000000
  11
-0.203285
  21
3.366669
  31
0.000000
  0
LINE
  8
0
  10
-0.203285
  20
3.366669
  30
0.000000
  11
-0.174111
  21
3.378205
  31
0.000000
  0
LINE
  8
0
  10
-0.174111
  20
3.378205
  30
0.000000
  11
-0.149208
  21
3.397248
  31
0.000000
  0
LINE
  8
0
  10
-0.149208
  20
3.397248
  30
0.000000
  11
-0.130654
  21
3.423615
  31
0.000000
  0
LINE
  8
0
  10
-0.130654
  20
3.423615
  30
0.000000
  11
-0.119118
  21
3.455597
  31
0.000000
  0
LINE
  8
0
  10
-0.119118
  20
3.455597
  30
0.000000
  11
-0.115273
  21
3.491486
  31
0.000000
  0
LINE
  8
0
  10
-0.115273
  20
3.491486
  30
0.000000
  11
-0.118935
  21
3.527070
  31
0.000000
  0
LINE
  8
0
  10
-0.118935
  20
3.527070
  30
0.000000
  11
-0.129921
  21
3.558625
  31
0.000000
  0
LINE
  8
0
  10
-0.129921
  20
3.558625
  30
0.000000
  11
-0.147682
  21
3.584931
  31
0.000000
  0
LINE
  8
0
  10
-0.147682
  20
3.584931
  30
0.000000
  11
-0.172158
  21
3.604767
  31
0.000000
  0
LINE
  8
0
  10
-0.172158
  20
3.604767
  30
0.000000
  11
-0.201699
  21
3.617219
  31
0.000000
  0
LINE
  8
0
  10
-0.201699
  20
3.617219
  30
0.000000
  11
-0.234658
  21
3.621369
  31
0.000000
  0
LINE
  8
0
  10
-0.234658
  20
3.621369
  30
0.000000
  11
-0.282570
  21
3.612519
  31
0.000000
  0
LINE
  8
0
  10
-0.282570
  20
3.612519
  30
0.000000
  11
-0.320839
  21
3.585969
  31
0.000000
  0
LINE
  8
0
  10
-0.320839
  20
3.585969
  30
0.000000
  11
-0.345925
  21
3.544098
  31
0.000000
  0
LINE
  8
0
  10
-0.345925
  20
3.544098
  30
0.000000
  11
-0.354286
  21
3.488801
  31
0.000000
  0
LINE
  8
0
  10
-0.320107
  20
3.488068
  30
0.000000
  11
-0.313820
  21
3.536530
  31
0.000000
  0
LINE
  8
0
  10
-0.313820
  20
3.536530
  30
0.000000
  11
-0.294960
  21
3.568635
  31
0.000000
  0
LINE
  8
0
  10
-0.294960
  20
3.568635
  30
0.000000
  11
-0.267128
  21
3.586762
  31
0.000000
  0
LINE
  8
0
  10
-0.267128
  20
3.586762
  30
0.000000
  11
-0.234413
  21
3.592805
  31
0.000000
  0
LINE
  8
0
  10
-0.234413
  20
3.592805
  30
0.000000
  11
-0.210976
  21
3.589692
  31
0.000000
  0
LINE
  8
0
  10
-0.210976
  20
3.589692
  30
0.000000
  11
-0.189980
  21
3.580353
  31
0.000000
  0
LINE
  8
0
  10
-0.189980
  20
3.580353
  30
0.000000
  11
-0.172402
  21
3.565278
  31
0.000000
  0
LINE
  8
0
  10
-0.172402
  20
3.565278
  30
0.000000
  11
-0.159706
  21
3.544953
  31
0.000000
  0
LINE
  8
0
  10
-0.159706
  20
3.544953
  30
0.000000
  11
-0.152016
  21
3.520295
  31
0.000000
  0
LINE
  8
0
  10
-0.152016
  20
3.520295
  30
0.000000
  11
-0.149452
  21
3.491730
  31
0.000000
  0
LINE
  8
0
  10
-0.149452
  20
3.491730
  30
0.000000
  11
-0.155495
  21
3.449067
  31
0.000000
  0
LINE
  8
0
  10
-0.155495
  20
3.449067
  30
0.000000
  11
-0.173622
  21
3.417267
  31
0.000000
  0
LINE
  8
0
  10
-0.173622
  20
3.417267
  30
0.000000
  11
-0.200905
  21
3.397492
  31
0.000000
  0
LINE
  8
0
  10
-0.200905
  20
3.397492
  30
0.000000
  11
-0.234902
  21
3.390900
  31
0.000000
  0
LINE
  8
0
  10
-0.234902
  20
3.390900
  30
0.000000
  11
-0.268471
  21
3.397370
  31
0.000000
  0
LINE
  8
0
  10
-0.268471
  20
3.397370
  30
0.000000
  11
-0.295937
  21
3.416779
  31
0.000000
  0
LINE
  8
0
  10
-0.295937
  20
3.416779
  30
0.000000
  11
-0.314064
  21
3.447663
  31
0.000000
  0
LINE
  8
0
  10
-0.314064
  20
3.447663
  30
0.000000
  11
-0.320107
  21
3.488068
  31
0.000000
  0
LINE
  8
0
  10
-0.048378
  20
3.366974
  30
0.000000
  11
-0.048378
  21
3.389680
  31
0.000000
  0
LINE
  8
0
  10
-0.048378
  20
3.389680
  30
0.000000
  11
-0.026650
  21
3.369538
  31
0.000000
  0
LINE
  8
0
  10
-0.026650
  20
3.369538
  30
0.000000
  11
0.001915
  21
3.362824
  31
0.000000
  0
LINE
  8
0
  10
0.001915
  20
3.362824
  30
0.000000
  11
0.031822
  21
3.369172
  31
0.000000
  0
LINE
  8
0
  10
0.031822
  20
3.369172
  30
0.000000
  11
0.057091
  21
3.388215
  31
0.000000
  0
LINE
  8
0
  10
0.057091
  20
3.388215
  30
0.000000
  11
0.074486
  21
3.418915
  31
0.000000
  0
LINE
  8
0
  10
0.074486
  20
3.418915
  30
0.000000
  11
0.080284
  21
3.460236
  31
0.000000
  0
LINE
  8
0
  10
0.080284
  20
3.460236
  30
0.000000
  11
0.078880
  21
3.479157
  31
0.000000
  0
LINE
  8
0
  10
0.078880
  20
3.479157
  30
0.000000
  11
0.074669
  21
3.496857
  31
0.000000
  0
LINE
  8
0
  10
0.074669
  20
3.496857
  30
0.000000
  11
0.068199
  21
3.512910
  31
0.000000
  0
LINE
  8
0
  10
0.068199
  20
3.512910
  30
0.000000
  11
0.059532
  21
3.526398
  31
0.000000
  0
LINE
  8
0
  10
0.059532
  20
3.526398
  30
0.000000
  11
0.048668
  21
3.537202
  31
0.000000
  0
LINE
  8
0
  10
0.048668
  20
3.537202
  30
0.000000
  11
0.035118
  21
3.545197
  31
0.000000
  0
LINE
  8
0
  10
0.035118
  20
3.545197
  30
0.000000
  11
0.019798
  21
3.550324
  31
0.000000
  0
LINE
  8
0
  10
0.019798
  20
3.550324
  30
0.000000
  11
0.003624
  21
3.552033
  31
0.000000
  0
LINE
  8
0
  10
0.003624
  20
3.552033
  30
0.000000
  11
-0.023903
  21
3.545930
  31
0.000000
  0
LINE
  8
0
  10
-0.023903
  20
3.545930
  30
0.000000
  11
-0.045937
  21
3.527619
  31
0.000000
  0
LINE
  8
0
  10
-0.045937
  20
3.527619
  30
0.000000
  11
-0.045937
  21
3.616974
  31
0.000000
  0
LINE
  8
0
  10
-0.045937
  20
3.616974
  30
0.000000
  11
-0.076699
  21
3.616974
  31
0.000000
  0
LINE
  8
0
  10
-0.076699
  20
3.616974
  30
0.000000
  11
-0.076699
  21
3.366974
  31
0.000000
  0
LINE
  8
0
  10
-0.076699
  20
3.366974
  30
0.000000
  11
-0.048378
  21
3.366974
  31
0.000000
  0
LINE
  8
0
  10
-0.048622
  20
3.458771
  30
0.000000
  11
-0.044960
  21
3.488007
  31
0.000000
  0
LINE
  8
0
  10
-0.044960
  20
3.488007
  30
0.000000
  11
-0.033974
  21
3.509308
  31
0.000000
  0
LINE
  8
0
  10
-0.033974
  20
3.509308
  30
0.000000
  11
-0.017922
  21
3.522492
  31
0.000000
  0
LINE
  8
0
  10
-0.017922
  20
3.522492
  30
0.000000
  11
0.000938
  21
3.526887
  31
0.000000
  0
LINE
  8
0
  10
0.000938
  20
3.526887
  30
0.000000
  11
0.019249
  21
3.522675
  31
0.000000
  0
LINE
  8
0
  10
0.019249
  20
3.522675
  30
0.000000
  11
0.034630
  21
3.510041
  31
0.000000
  0
LINE
  8
0
  10
0.034630
  20
3.510041
  30
0.000000
  11
0.045250
  21
3.488495
  31
0.000000
  0
LINE
  8
0
  10
0.045250
  20
3.488495
  30
0.000000
  11
0.048790
  21
3.457551
  31
0.000000
  0
LINE
  8
0
  10
0.048790
  20
3.457551
  30
0.000000
  11
0.045128
  21
3.427338
  31
0.000000
  0
LINE
  8
0
  10
0.045128
  20
3.427338
  30
0.000000
  11
0.034141
  21
3.405549
  31
0.000000
  0
LINE
  8
0
  10
0.034141
  20
3.405549
  30
0.000000
  11
0.018150
  21
3.392548
  31
0.000000
  0
LINE
  8
0
  10
0.018150
  20
3.392548
  30
0.000000
  11
-0.000527
  21
3.388215
  31
0.000000
  0
LINE
  8
0
  10
-0.000527
  20
3.388215
  30
0.000000
  11
-0.022682
  21
3.394135
  31
0.000000
  0
LINE
  8
0
  10
-0.022682
  20
3.394135
  30
0.000000
  11
-0.039833
  21
3.411896
  31
0.000000
  0
LINE
  8
0
  10
-0.039833
  20
3.411896
  30
0.000000
  11
-0.046425
  21
3.430817
  31
0.000000
  0
LINE
  8
0
  10
-0.046425
  20
3.430817
  30
0.000000
  11
-0.048622
  21
3.458771
  31
0.000000
  0
LINE
  8
0
  10
0.117393
  20
3.581330
  30
0.000000
  11
0.148155
  21
3.581330
  31
0.000000
  0
LINE
  8
0
  10
0.148155
  20
3.581330
  30
0.000000
  11
0.148155
  21
3.616974
  31
0.000000
  0
LINE
  8
0
  10
0.148155
  20
3.616974
  30
0.000000
  11
0.117393
  21
3.616974
  31
0.000000
  0
LINE
  8
0
  10
0.117393
  20
3.616974
  30
0.000000
  11
0.117393
  21
3.581330
  31
0.000000
  0
LINE
  8
0
  10
0.078575
  20
3.296662
  30
0.000000
  11
0.090294
  21
3.294282
  31
0.000000
  0
LINE
  8
0
  10
0.090294
  20
3.294282
  30
0.000000
  11
0.102501
  21
3.293488
  31
0.000000
  0
LINE
  8
0
  10
0.102501
  20
3.293488
  30
0.000000
  11
0.124656
  21
3.297761
  31
0.000000
  0
LINE
  8
0
  10
0.124656
  20
3.297761
  30
0.000000
  11
0.139366
  21
3.310578
  31
0.000000
  0
LINE
  8
0
  10
0.139366
  20
3.310578
  30
0.000000
  11
0.145958
  21
3.328827
  31
0.000000
  0
LINE
  8
0
  10
0.145958
  20
3.328827
  30
0.000000
  11
0.148155
  21
3.357209
  31
0.000000
  0
LINE
  8
0
  10
0.148155
  20
3.357209
  30
0.000000
  11
0.148155
  21
3.548127
  31
0.000000
  0
LINE
  8
0
  10
0.148155
  20
3.548127
  30
0.000000
  11
0.117393
  21
3.548127
  31
0.000000
  0
LINE
  8
0
  10
0.117393
  20
3.548127
  30
0.000000
  11
0.117393
  21
3.357697
  31
0.000000
  0
LINE
  8
0
  10
0.117393
  20
3.357697
  30
0.000000
  11
0.116234
  21
3.337494
  31
0.000000
  0
LINE
  8
0
  10
0.116234
  20
3.337494
  30
0.000000
  11
0.112755
  21
3.326691
  31
0.000000
  0
LINE
  8
0
  10
0.112755
  20
3.326691
  30
0.000000
  11
0.106956
  21
3.321931
  31
0.000000
  0
LINE
  8
0
  10
0.106956
  20
3.321931
  30
0.000000
  11
0.098839
  21
3.320344
  31
0.000000
  0
LINE
  8
0
  10
0.098839
  20
3.320344
  30
0.000000
  11
0.092552
  21
3.320954
  31
0.000000
  0
LINE
  8
0
  10
0.092552
  20
3.320954
  30
0.000000
  11
0.084434
  21
3.322785
  31
0.000000
  0
LINE
  8
0
  10
0.084434
  20
3.322785
  30
0.000000
  11
0.078575
  21
3.296662
  31
0.000000
  0
LINE
  8
0
  10
0.319053
  20
3.425324
  30
0.000000
  11
0.310936
  21
3.408478
  31
0.000000
  0
LINE
  8
0
  10
0.310936
  20
3.408478
  30
0.000000
  11
0.300255
  21
3.397004
  31
0.000000
  0
LINE
  8
0
  10
0.300255
  20
3.397004
  30
0.000000
  11
0.287071
  21
3.390412
  31
0.000000
  0
LINE
  8
0
  10
0.287071
  20
3.390412
  30
0.000000
  11
0.271446
  21
3.388215
  31
0.000000
  0
LINE
  8
0
  10
0.271446
  20
3.388215
  30
0.000000
  11
0.250633
  21
3.392121
  31
0.000000
  0
LINE
  8
0
  10
0.250633
  20
3.392121
  30
0.000000
  11
0.233604
  21
3.403840
  31
0.000000
  0
LINE
  8
0
  10
0.233604
  20
3.403840
  30
0.000000
  11
0.221824
  21
3.423249
  31
0.000000
  0
LINE
  8
0
  10
0.221824
  20
3.423249
  30
0.000000
  11
0.216758
  21
3.449738
  31
0.000000
  0
LINE
  8
0
  10
0.216758
  20
3.449738
  30
0.000000
  11
0.351768
  21
3.449738
  31
0.000000
  0
LINE
  8
0
  10
0.351768
  20
3.449738
  30
0.000000
  11
0.351768
  21
3.454438
  31
0.000000
  0
LINE
  8
0
  10
0.351768
  20
3.454438
  30
0.000000
  11
0.351768
  21
3.457795
  31
0.000000
  0
LINE
  8
0
  10
0.351768
  20
3.457795
  30
0.000000
  11
0.346031
  21
3.497651
  31
0.000000
  0
LINE
  8
0
  10
0.346031
  20
3.497651
  30
0.000000
  11
0.328819
  21
3.527375
  31
0.000000
  0
LINE
  8
0
  10
0.328819
  20
3.527375
  30
0.000000
  11
0.302513
  21
3.545868
  31
0.000000
  0
LINE
  8
0
  10
0.302513
  20
3.545868
  30
0.000000
  11
0.269493
  21
3.552033
  31
0.000000
  0
LINE
  8
0
  10
0.269493
  20
3.552033
  30
0.000000
  11
0.235435
  21
3.545746
  31
0.000000
  0
LINE
  8
0
  10
0.235435
  20
3.545746
  30
0.000000
  11
0.208458
  21
3.526887
  31
0.000000
  0
LINE
  8
0
  10
0.208458
  20
3.526887
  30
0.000000
  11
0.190880
  21
3.496552
  31
0.000000
  0
LINE
  8
0
  10
0.190880
  20
3.496552
  30
0.000000
  11
0.185020
  21
3.455842
  31
0.000000
  0
LINE
  8
0
  10
0.185020
  20
3.455842
  30
0.000000
  11
0.190819
  21
3.416718
  31
0.000000
  0
LINE
  8
0
  10
0.190819
  20
3.416718
  30
0.000000
  11
0.208214
  21
3.387238
  31
0.000000
  0
LINE
  8
0
  10
0.208214
  20
3.387238
  30
0.000000
  11
0.235557
  21
3.368928
  31
0.000000
  0
LINE
  8
0
  10
0.235557
  20
3.368928
  30
0.000000
  11
0.271202
  21
3.362824
  31
0.000000
  0
LINE
  8
0
  10
0.271202
  20
3.362824
  30
0.000000
  11
0.299888
  21
3.366669
  31
0.000000
  0
LINE
  8
0
  10
0.299888
  20
3.366669
  30
0.000000
  11
0.322960
  21
3.378205
  31
0.000000
  0
LINE
  8
0
  10
0.322960
  20
3.378205
  30
0.000000
  11
0.340050
  21
3.396699
  31
0.000000
  0
LINE
  8
0
  10
0.340050
  20
3.396699
  30
0.000000
  11
0.350792
  21
3.421418
  31
0.000000
  0
LINE
  8
0
  10
0.350792
  20
3.421418
  30
0.000000
  11
0.319053
  21
3.425324
  31
0.000000
  0
LINE
  8
0
  10
0.218467
  20
3.474885
  30
0.000000
  11
0.223167
  21
3.496186
  31
0.000000
  0
LINE
  8
0
  10
0.223167
  20
3.496186
  30
0.000000
  11
0.234337
  21
3.512726
  31
0.000000
  0
LINE
  8
0
  10
0.234337
  20
3.512726
  30
0.000000
  11
0.250389
  21
3.523347
  31
0.000000
  0
LINE
  8
0
  10
0.250389
  20
3.523347
  30
0.000000
  11
0.269737
  21
3.526887
  31
0.000000
  0
LINE
  8
0
  10
0.269737
  20
3.526887
  30
0.000000
  11
0.290977
  21
3.522431
  31
0.000000
  0
LINE
  8
0
  10
0.290977
  20
3.522431
  30
0.000000
  11
0.307823
  21
3.509064
  31
0.000000
  0
LINE
  8
0
  10
0.307823
  20
3.509064
  30
0.000000
  11
0.315513
  21
3.494904
  31
0.000000
  0
LINE
  8
0
  10
0.315513
  20
3.494904
  30
0.000000
  11
0.319542
  21
3.474885
  31
0.000000
  0
LINE
  8
0
  10
0.319542
  20
3.474885
  30
0.000000
  11
0.218467
  21
3.474885
  31
0.000000
  0
LINE
  8
0
  10
0.507530
  20
3.433381
  30
0.000000
  11
0.501915
  21
3.413239
  31
0.000000
  0
LINE
  8
0
  10
0.501915
  20
3.413239
  30
0.000000
  11
0.491905
  21
3.399201
  31
0.000000
  0
LINE
  8
0
  10
0.491905
  20
3.399201
  30
0.000000
  11
0.478416
  21
3.390961
  31
0.000000
  0
LINE
  8
0
  10
0.478416
  20
3.390961
  30
0.000000
  11
0.461876
  21
3.388215
  31
0.000000
  0
LINE
  8
0
  10
0.461876
  20
3.388215
  30
0.000000
  11
0.441551
  21
3.392304
  31
0.000000
  0
LINE
  8
0
  10
0.441551
  20
3.392304
  30
0.000000
  11
0.425499
  21
3.404572
  31
0.000000
  0
LINE
  8
0
  10
0.425499
  20
3.404572
  30
0.000000
  11
0.415062
  21
3.426118
  31
0.000000
  0
LINE
  8
0
  10
0.415062
  20
3.426118
  30
0.000000
  11
0.411583
  21
3.457551
  31
0.000000
  0
LINE
  8
0
  10
0.411583
  20
3.457551
  30
0.000000
  11
0.415184
  21
3.488801
  31
0.000000
  0
LINE
  8
0
  10
0.415184
  20
3.488801
  30
0.000000
  11
0.425987
  21
3.510285
  31
0.000000
  0
LINE
  8
0
  10
0.425987
  20
3.510285
  30
0.000000
  11
0.442589
  21
3.522736
  31
0.000000
  0
LINE
  8
0
  10
0.442589
  20
3.522736
  30
0.000000
  11
0.463585
  21
3.526887
  31
0.000000
  0
LINE
  8
0
  10
0.463585
  20
3.526887
  30
0.000000
  11
0.477806
  21
3.524567
  31
0.000000
  0
LINE
  8
0
  10
0.477806
  20
3.524567
  30
0.000000
  11
0.489708
  21
3.517609
  31
0.000000
  0
LINE
  8
0
  10
0.489708
  20
3.517609
  30
0.000000
  11
0.498985
  21
3.506257
  31
0.000000
  0
LINE
  8
0
  10
0.498985
  20
3.506257
  30
0.000000
  11
0.504844
  21
3.490265
  31
0.000000
  0
LINE
  8
0
  10
0.504844
  20
3.490265
  30
0.000000
  11
0.534630
  21
3.494904
  31
0.000000
  0
LINE
  8
0
  10
0.534630
  20
3.494904
  30
0.000000
  11
0.526085
  21
3.519135
  31
0.000000
  0
LINE
  8
0
  10
0.526085
  20
3.519135
  30
0.000000
  11
0.510704
  21
3.537140
  31
0.000000
  0
LINE
  8
0
  10
0.510704
  20
3.537140
  30
0.000000
  11
0.489219
  21
3.548310
  31
0.000000
  0
LINE
  8
0
  10
0.489219
  20
3.548310
  30
0.000000
  11
0.462364
  21
3.552033
  31
0.000000
  0
LINE
  8
0
  10
0.462364
  20
3.552033
  30
0.000000
  11
0.439964
  21
3.549286
  31
0.000000
  0
LINE
  8
0
  10
0.439964
  20
3.549286
  30
0.000000
  11
0.419151
  21
3.541047
  31
0.000000
  0
LINE
  8
0
  10
0.419151
  20
3.541047
  30
0.000000
  11
0.401878
  21
3.527314
  31
0.000000
  0
LINE
  8
0
  10
0.401878
  20
3.527314
  30
0.000000
  11
0.389610
  21
3.508088
  31
0.000000
  0
LINE
  8
0
  10
0.389610
  20
3.508088
  30
0.000000
  11
0.382286
  21
3.484284
  31
0.000000
  0
LINE
  8
0
  10
0.382286
  20
3.484284
  30
0.000000
  11
0.379844
  21
3.456818
  31
0.000000
  0
LINE
  8
0
  10
0.379844
  20
3.456818
  30
0.000000
  11
0.385460
  21
3.416657
  31
0.000000
  0
LINE
  8
0
  10
0.385460
  20
3.416657
  30
0.000000
  11
0.402305
  21
3.386994
  31
0.000000
  0
LINE
  8
0
  10
0.402305
  20
3.386994
  30
0.000000
  11
0.428673
  21
3.368867
  31
0.000000
  0
LINE
  8
0
  10
0.428673
  20
3.368867
  30
0.000000
  11
0.462364
  21
3.362824
  31
0.000000
  0
LINE
  8
0
  10
0.462364
  20
3.362824
  30
0.000000
  11
0.489586
  21
3.367219
  31
0.000000
  0
LINE
  8
0
  10
0.489586
  20
3.367219
  30
0.000000
  11
0.512169
  21
3.380402
  31
0.000000
  0
LINE
  8
0
  10
0.512169
  20
3.380402
  30
0.000000
  11
0.528770
  21
3.401581
  31
0.000000
  0
LINE
  8
0
  10
0.528770
  20
3.401581
  30
0.000000
  11
0.537559
  21
3.429474
  31
0.000000
  0
LINE
  8
0
  10
0.537559
  20
3.429474
  30
0.000000
  11
0.507530
  21
3.433381
  31
0.000000
  0
LINE
  8
0
  10
0.630821
  20
3.394318
  30
0.000000
  11
0.623314
  21
3.393586
  31
0.000000
  0
LINE
  8
0
  10
0.623314
  20
3.393586
  30
0.000000
  11
0.617393
  21
3.393342
  31
0.000000
  0
LINE
  8
0
  10
0.617393
  20
3.393342
  30
0.000000
  11
0.611351
  21
3.393891
  31
0.000000
  0
LINE
  8
0
  10
0.611351
  20
3.393891
  30
0.000000
  11
0.606895
  21
3.395539
  31
0.000000
  0
LINE
  8
0
  10
0.606895
  20
3.395539
  30
0.000000
  11
0.603721
  21
3.398102
  31
0.000000
  0
LINE
  8
0
  10
0.603721
  20
3.398102
  30
0.000000
  11
0.601524
  21
3.401398
  31
0.000000
  0
LINE
  8
0
  10
0.601524
  20
3.401398
  30
0.000000
  11
0.600425
  21
3.407441
  31
0.000000
  0
LINE
  8
0
  10
0.600425
  20
3.407441
  30
0.000000
  11
0.600059
  21
3.418244
  31
0.000000
  0
LINE
  8
0
  10
0.600059
  20
3.418244
  30
0.000000
  11
0.600059
  21
3.524201
  31
0.000000
  0
LINE
  8
0
  10
0.600059
  20
3.524201
  30
0.000000
  11
0.630821
  21
3.524201
  31
0.000000
  0
LINE
  8
0
  10
0.630821
  20
3.524201
  30
0.000000
  11
0.630821
  21
3.548127
  31
0.000000
  0
LINE
  8
0
  10
0.630821
  20
3.548127
  30
0.000000
  11
0.600059
  21
3.548127
  31
0.000000
  0
LINE
  8
0
  10
0.600059
  20
3.548127
  30
0.000000
  11
0.600059
  21
3.611359
  31
0.000000
  0
LINE
  8
0
  10
0.600059
  20
3.611359
  30
0.000000
  11
0.569542
  21
3.592805
  31
0.000000
  0
LINE
  8
0
  10
0.569542
  20
3.592805
  30
0.000000
  11
0.569542
  21
3.548127
  31
0.000000
  0
LINE
  8
0
  10
0.569542
  20
3.548127
  30
0.000000
  11
0.547081
  21
3.548127
  31
0.000000
  0
LINE
  8
0
  10
0.547081
  20
3.548127
  30
0.000000
  11
0.547081
  21
3.524201
  31
0.000000
  0
LINE
  8
0
  10
0.547081
  20
3.524201
  30
0.000000
  11
0.569542
  21
3.524201
  31
0.000000
  0
LINE
  8
0
  10
0.569542
  20
3.524201
  30
0.000000
  11
0.569542
  21
3.419953
  31
0.000000
  0
LINE
  8
0
  10
0.569542
  20
3.419953
  30
0.000000
  11
0.570457
  21
3.397126
  31
0.000000
  0
LINE
  8
0
  10
0.570457
  20
3.397126
  30
0.000000
  11
0.573204
  21
3.383820
  31
0.000000
  0
LINE
  8
0
  10
0.573204
  20
3.383820
  30
0.000000
  11
0.578392
  21
3.376069
  31
0.000000
  0
LINE
  8
0
  10
0.578392
  20
3.376069
  30
0.000000
  11
0.586143
  21
3.369904
  31
0.000000
  0
LINE
  8
0
  10
0.586143
  20
3.369904
  30
0.000000
  11
0.597252
  21
3.365876
  31
0.000000
  0
LINE
  8
0
  10
0.597252
  20
3.365876
  30
0.000000
  11
0.612022
  21
3.364533
  31
0.000000
  0
LINE
  8
0
  10
0.612022
  20
3.364533
  30
0.000000
  11
0.622947
  21
3.365204
  31
0.000000
  0
LINE
  8
0
  10
0.622947
  20
3.365204
  30
0.000000
  11
0.635216
  21
3.367219
  31
0.000000
  0
LINE
  8
0
  10
0.635216
  20
3.367219
  30
0.000000
  11
0.630821
  21
3.394318
  31
0.000000
  0
LINE
  8
0
  10
0.762901
  20
3.366974
  30
0.000000
  11
0.795860
  21
3.366974
  31
0.000000
  0
LINE
  8
0
  10
0.795860
  20
3.366974
  30
0.000000
  11
0.795860
  21
3.484650
  31
0.000000
  0
LINE
  8
0
  10
0.795860
  20
3.484650
  30
0.000000
  11
0.925743
  21
3.484650
  31
0.000000
  0
LINE
  8
0
  10
0.925743
  20
3.484650
  30
0.000000
  11
0.925743
  21
3.366974
  31
0.000000
  0
LINE
  8
0
  10
0.925743
  20
3.366974
  30
0.000000
  11
0.958946
  21
3.366974
  31
0.000000
  0
LINE
  8
0
  10
0.958946
  20
3.366974
  30
0.000000
  11
0.958946
  21
3.616974
  31
0.000000
  0
LINE
  8
0
  10
0.958946
  20
3.616974
  30
0.000000
  11
0.925743
  21
3.616974
  31
0.000000
  0
LINE
  8
0
  10
0.925743
  20
3.616974
  30
0.000000
  11
0.925743
  21
3.514191
  31
0.000000
  0
LINE
  8
0
  10
0.925743
  20
3.514191
  30
0.000000
  11
0.795860
  21
3.514191
  31
0.000000
  0
LINE
  8
0
  10
0.795860
  20
3.514191
  30
0.000000
  11
0.795860
  21
3.616974
  31
0.000000
  0
LINE
  8
0
  10
0.795860
  20
3.616974
  30
0.000000
  11
0.762901
  21
3.616974
  31
0.000000
  0
LINE
  8
0
  10
0.762901
  20
3.616974
  30
0.000000
  11
0.762901
  21
3.366974
  31
0.000000
  0
LINE
  8
0
  10
0.998497
  20
3.457551
  30
0.000000
  11
1.004356
  21
3.417023
  31
0.000000
  0
LINE
  8
0
  10
1.004356
  20
3.417023
  30
0.000000
  11
1.021934
  21
3.387238
  31
0.000000
  0
LINE
  8
0
  10
1.021934
  20
3.387238
  30
0.000000
  11
1.049034
  21
3.368928
  31
0.000000
  0
LINE
  8
0
  10
1.049034
  20
3.368928
  30
0.000000
  11
1.083458
  21
3.362824
  31
0.000000
  0
LINE
  8
0
  10
1.083458
  20
3.362824
  30
0.000000
  11
1.106224
  21
3.365571
  31
0.000000
  0
LINE
  8
0
  10
1.106224
  20
3.365571
  30
0.000000
  11
1.127159
  21
3.373810
  31
0.000000
  0
LINE
  8
0
  10
1.127159
  20
3.373810
  30
0.000000
  11
1.144798
  21
3.387238
  31
0.000000
  0
LINE
  8
0
  10
1.144798
  20
3.387238
  30
0.000000
  11
1.157676
  21
3.405060
  31
0.000000
  0
LINE
  8
0
  10
1.157676
  20
3.405060
  30
0.000000
  11
1.165550
  21
3.428803
  31
0.000000
  0
LINE
  8
0
  10
1.165550
  20
3.428803
  30
0.000000
  11
1.168175
  21
3.459992
  31
0.000000
  0
LINE
  8
0
  10
1.168175
  20
3.459992
  30
0.000000
  11
1.162254
  21
3.498505
  31
0.000000
  0
LINE
  8
0
  10
1.162254
  20
3.498505
  30
0.000000
  11
1.144493
  21
3.527619
  31
0.000000
  0
LINE
  8
0
  10
1.144493
  20
3.527619
  30
0.000000
  11
1.117393
  21
3.545930
  31
0.000000
  0
LINE
  8
0
  10
1.117393
  20
3.545930
  30
0.000000
  11
1.083458
  21
3.552033
  31
0.000000
  0
LINE
  8
0
  10
1.083458
  20
3.552033
  30
0.000000
  11
1.052513
  21
3.547028
  31
0.000000
  0
LINE
  8
0
  10
1.052513
  20
3.547028
  30
0.000000
  11
1.026573
  21
3.532014
  31
0.000000
  0
LINE
  8
0
  10
1.026573
  20
3.532014
  30
0.000000
  11
1.005516
  21
3.501313
  31
0.000000
  0
LINE
  8
0
  10
1.005516
  20
3.501313
  30
0.000000
  11
0.998497
  21
3.457551
  31
0.000000
  0
LINE
  8
0
  10
1.030235
  20
3.457551
  30
0.000000
  11
1.034019
  21
3.487824
  31
0.000000
  0
LINE
  8
0
  10
1.034019
  20
3.487824
  30
0.000000
  11
1.045372
  21
3.509308
  31
0.000000
  0
LINE
  8
0
  10
1.045372
  20
3.509308
  30
0.000000
  11
1.062462
  21
3.522309
  31
0.000000
  0
LINE
  8
0
  10
1.062462
  20
3.522309
  30
0.000000
  11
1.083458
  21
3.526642
  31
0.000000
  0
LINE
  8
0
  10
1.083458
  20
3.526642
  30
0.000000
  11
1.104271
  21
3.522309
  31
0.000000
  0
LINE
  8
0
  10
1.104271
  20
3.522309
  30
0.000000
  11
1.121300
  21
3.509308
  31
0.000000
  0
LINE
  8
0
  10
1.121300
  20
3.509308
  30
0.000000
  11
1.132835
  21
3.488068
  31
0.000000
  0
LINE
  8
0
  10
1.132835
  20
3.488068
  30
0.000000
  11
1.136680
  21
3.458527
  31
0.000000
  0
LINE
  8
0
  10
1.136680
  20
3.458527
  30
0.000000
  11
1.132896
  21
3.427460
  31
0.000000
  0
LINE
  8
0
  10
1.132896
  20
3.427460
  30
0.000000
  11
1.121544
  21
3.405549
  31
0.000000
  0
LINE
  8
0
  10
1.121544
  20
3.405549
  30
0.000000
  11
1.104454
  21
3.392548
  31
0.000000
  0
LINE
  8
0
  10
1.104454
  20
3.392548
  30
0.000000
  11
1.083458
  21
3.388215
  31
0.000000
  0
LINE
  8
0
  10
1.083458
  20
3.388215
  30
0.000000
  11
1.062462
  21
3.392487
  31
0.000000
  0
LINE
  8
0
  10
1.062462
  20
3.392487
  30
0.000000
  11
1.045372
  21
3.405305
  31
0.000000
  0
LINE
  8
0
  10
1.045372
  20
3.405305
  30
0.000000
  11
1.034019
  21
3.427033
  31
0.000000
  0
LINE
  8
0
  10
1.034019
  20
3.427033
  30
0.000000
  11
1.030235
  21
3.457551
  31
0.000000
  0
LINE
  8
0
  10
1.203819
  20
3.366974
  30
0.000000
  11
1.234581
  21
3.366974
  31
0.000000
  0
LINE
  8
0
  10
1.234581
  20
3.366974
  30
0.000000
  11
1.234581
  21
3.461701
  31
0.000000
  0
LINE
  8
0
  10
1.234581
  20
3.461701
  30
0.000000
  11
1.235863
  21
3.480439
  31
0.000000
  0
LINE
  8
0
  10
1.235863
  20
3.480439
  30
0.000000
  11
1.239708
  21
3.497590
  31
0.000000
  0
LINE
  8
0
  10
1.239708
  20
3.497590
  30
0.000000
  11
1.244224
  21
3.507111
  31
0.000000
  0
LINE
  8
0
  10
1.244224
  20
3.507111
  30
0.000000
  11
1.250938
  21
3.514191
  31
0.000000
  0
LINE
  8
0
  10
1.250938
  20
3.514191
  30
0.000000
  11
1.259483
  21
3.518769
  31
0.000000
  0
LINE
  8
0
  10
1.259483
  20
3.518769
  30
0.000000
  11
1.269005
  21
3.520295
  31
0.000000
  0
LINE
  8
0
  10
1.269005
  20
3.520295
  30
0.000000
  11
1.280418
  21
3.518647
  31
0.000000
  0
LINE
  8
0
  10
1.280418
  20
3.518647
  30
0.000000
  11
1.291710
  21
3.513703
  31
0.000000
  0
LINE
  8
0
  10
1.291710
  20
3.513703
  30
0.000000
  11
1.302208
  21
3.542267
  31
0.000000
  0
LINE
  8
0
  10
1.302208
  20
3.542267
  30
0.000000
  11
1.286278
  21
3.549592
  31
0.000000
  0
LINE
  8
0
  10
1.286278
  20
3.549592
  30
0.000000
  11
1.270714
  21
3.552033
  31
0.000000
  0
LINE
  8
0
  10
1.270714
  20
3.552033
  30
0.000000
  11
1.260399
  21
3.550507
  31
0.000000
  0
LINE
  8
0
  10
1.260399
  20
3.550507
  30
0.000000
  11
1.250938
  21
3.545930
  31
0.000000
  0
LINE
  8
0
  10
1.250938
  20
3.545930
  30
0.000000
  11
1.241539
  21
3.536530
  31
0.000000
  0
LINE
  8
0
  10
1.241539
  20
3.536530
  30
0.000000
  11
1.231407
  21
3.520539
  31
0.000000
  0
LINE
  8
0
  10
1.231407
  20
3.520539
  30
0.000000
  11
1.231407
  21
3.548127
  31
0.000000
  0
LINE
  8
0
  10
1.231407
  20
3.548127
  30
0.000000
  11
1.203819
  21
3.548127
  31
0.000000
  0
LINE
  8
0
  10
1.203819
  20
3.548127
  30
0.000000
  11
1.203819
  21
3.366974
  31
0.000000
  0
LINE
  8
0
  10
1.320518
  20
3.581574
  30
0.000000
  11
1.351280
  21
3.581574
  31
0.000000
  0
LINE
  8
0
  10
1.351280
  20
3.581574
  30
0.000000
  11
1.351280
  21
3.616974
  31
0.000000
  0
LINE
  8
0
  10
1.351280
  20
3.616974
  30
0.000000
  11
1.320518
  21
3.616974
  31
0.000000
  0
LINE
  8
0
  10
1.320518
  20
3.616974
  30
0.000000
  11
1.320518
  21
3.581574
  31
0.000000
  0
LINE
  8
0
  10
1.320518
  20
3.366974
  30
0.000000
  11
1.351280
  21
3.366974
  31
0.000000
  0
LINE
  8
0
  10
1.351280
  20
3.366974
  30
0.000000
  11
1.351280
  21
3.548127
  31
0.000000
  0
LINE
  8
0
  10
1.351280
  20
3.548127
  30
0.000000
  11
1.320518
  21
3.548127
  31
0.000000
  0
LINE
  8
0
  10
1.320518
  20
3.548127
  30
0.000000
  11
1.320518
  21
3.366974
  31
0.000000
  0
LINE
  8
0
  10
1.381798
  20
3.366974
  30
0.000000
  11
1.541954
  21
3.366974
  31
0.000000
  0
LINE
  8
0
  10
1.541954
  20
3.366974
  30
0.000000
  11
1.541954
  21
3.393342
  31
0.000000
  0
LINE
  8
0
  10
1.541954
  20
3.393342
  30
0.000000
  11
1.458458
  21
3.393342
  31
0.000000
  0
LINE
  8
0
  10
1.458458
  20
3.393342
  30
0.000000
  11
1.439720
  21
3.392975
  31
0.000000
  0
LINE
  8
0
  10
1.439720
  20
3.392975
  30
0.000000
  11
1.419639
  21
3.391877
  31
0.000000
  0
LINE
  8
0
  10
1.419639
  20
3.391877
  30
0.000000
  11
1.438682
  21
3.412873
  31
0.000000
  0
LINE
  8
0
  10
1.438682
  20
3.412873
  30
0.000000
  11
1.536583
  21
3.527619
  31
0.000000
  0
LINE
  8
0
  10
1.536583
  20
3.527619
  30
0.000000
  11
1.536583
  21
3.548127
  31
0.000000
  0
LINE
  8
0
  10
1.536583
  20
3.548127
  30
0.000000
  11
1.388634
  21
3.548127
  31
0.000000
  0
LINE
  8
0
  10
1.388634
  20
3.548127
  30
0.000000
  11
1.388634
  21
3.523224
  31
0.000000
  0
LINE
  8
0
  10
1.388634
  20
3.523224
  30
0.000000
  11
1.462364
  21
3.523224
  31
0.000000
  0
LINE
  8
0
  10
1.462364
  20
3.523224
  30
0.000000
  11
1.478599
  21
3.523469
  31
0.000000
  0
LINE
  8
0
  10
1.478599
  20
3.523469
  30
0.000000
  11
1.497032
  21
3.524201
  31
0.000000
  0
LINE
  8
0
  10
1.497032
  20
3.524201
  30
0.000000
  11
1.381798
  21
3.391877
  31
0.000000
  0
LINE
  8
0
  10
1.381798
  20
3.391877
  30
0.000000
  11
1.381798
  21
3.366974
  31
0.000000
  0
LINE
  8
0
  10
-0.354286
  20
2.988801
  30
0.000000
  11
-0.350746
  21
2.956696
  31
0.000000
  0
LINE
  8
0
  10
-0.350746
  20
2.956696
  30
0.000000
  11
-0.340126
  21
2.926301
  31
0.000000
  0
LINE
  8
0
  10
-0.340126
  20
2.926301
  30
0.000000
  11
-0.322365
  21
2.899872
  31
0.000000
  0
LINE
  8
0
  10
-0.322365
  20
2.899872
  30
0.000000
  11
-0.297890
  21
2.879670
  31
0.000000
  0
LINE
  8
0
  10
-0.297890
  20
2.879670
  30
0.000000
  11
-0.268166
  21
2.867035
  31
0.000000
  0
LINE
  8
0
  10
-0.268166
  20
2.867035
  30
0.000000
  11
-0.234658
  21
2.862824
  31
0.000000
  0
LINE
  8
0
  10
-0.234658
  20
2.862824
  30
0.000000
  11
-0.203285
  21
2.866669
  31
0.000000
  0
LINE
  8
0
  10
-0.203285
  20
2.866669
  30
0.000000
  11
-0.174111
  21
2.878205
  31
0.000000
  0
LINE
  8
0
  10
-0.174111
  20
2.878205
  30
0.000000
  11
-0.149208
  21
2.897248
  31
0.000000
  0
LINE
  8
0
  10
-0.149208
  20
2.897248
  30
0.000000
  11
-0.130654
  21
2.923615
  31
0.000000
  0
LINE
  8
0
  10
-0.130654
  20
2.923615
  30
0.000000
  11
-0.119118
  21
2.955597
  31
0.000000
  0
LINE
  8
0
  10
-0.119118
  20
2.955597
  30
0.000000
  11
-0.115273
  21
2.991486
  31
0.000000
  0
LINE
  8
0
  10
-0.115273
  20
2.991486
  30
0.000000
  11
-0.118935
  21
3.027070
  31
0.000000
  0
LINE
  8
0
  10
-0.118935
  20
3.027070
  30
0.000000
  11
-0.129921
  21
3.058625
  31
0.000000
  0
LINE
  8
0
  10
-0.129921
  20
3.058625
  30
0.000000
  11
-0.147682
  21
3.084931
  31
0.000000
  0
LINE
  8
0
  10
-0.147682
  20
3.084931
  30
0.000000
  11
-0.172158
  21
3.104767
  31
0.000000
  0
LINE
  8
0
  10
-0.172158
  20
3.104767
  30
0.000000
  11
-0.201699
  21
3.117219
  31
0.000000
  0
LINE
  8
0
  10
-0.201699
  20
3.117219
  30
0.000000
  11
-0.234658
  21
3.121369
  31
0.000000
  0
LINE
  8
0
  10
-0.234658
  20
3.121369
  30
0.000000
  11
-0.282570
  21
3.112519
  31
0.000000
  0
LINE
  8
0
  10
-0.282570
  20
3.112519
  30
0.000000
  11
-0.320839
  21
3.085969
  31
0.000000
  0
LINE
  8
0
  10
-0.320839
  20
3.085969
  30
0.000000
  11
-0.345925
  21
3.044098
  31
0.000000
  0
LINE
  8
0
  10
-0.345925
  20
3.044098
  30
0.000000
  11
-0.354286
  21
2.988801
  31
0.000000
  0
LINE
  8
0
  10
-0.320107
  20
2.988068
  30
0.000000
  11
-0.313820
  21
3.036530
  31
0.000000
  0
LINE
  8
0
  10
-0.313820
  20
3.036530
  30
0.000000
  11
-0.294960
  21
3.068635
  31
0.000000
  0
LINE
  8
0
  10
-0.294960
  20
3.068635
  30
0.000000
  11
-0.267128
  21
3.086762
  31
0.000000
  0
LINE
  8
0
  10
-0.267128
  20
3.086762
  30
0.000000
  11
-0.234413
  21
3.092805
  31
0.000000
  0
LINE
  8
0
  10
-0.234413
  20
3.092805
  30
0.000000
  11
-0.210976
  21
3.089692
  31
0.000000
  0
LINE
  8
0
  10
-0.210976
  20
3.089692
  30
0.000000
  11
-0.189980
  21
3.080353
  31
0.000000
  0
LINE
  8
0
  10
-0.189980
  20
3.080353
  30
0.000000
  11
-0.172402
  21
3.065278
  31
0.000000
  0
LINE
  8
0
  10
-0.172402
  20
3.065278
  30
0.000000
  11
-0.159706
  21
3.044953
  31
0.000000
  0
LINE
  8
0
  10
-0.159706
  20
3.044953
  30
0.000000
  11
-0.152016
  21
3.020295
  31
0.000000
  0
LINE
  8
0
  10
-0.152016
  20
3.020295
  30
0.000000
  11
-0.149452
  21
2.991730
  31
0.000000
  0
LINE
  8
0
  10
-0.149452
  20
2.991730
  30
0.000000
  11
-0.155495
  21
2.949067
  31
0.000000
  0
LINE
  8
0
  10
-0.155495
  20
2.949067
  30
0.000000
  11
-0.173622
  21
2.917267
  31
0.000000
  0
LINE
  8
0
  10
-0.173622
  20
2.917267
  30
0.000000
  11
-0.200905
  21
2.897492
  31
0.000000
  0
LINE
  8
0
  10
-0.200905
  20
2.897492
  30
0.000000
  11
-0.234902
  21
2.890900
  31
0.000000
  0
LINE
  8
0
  10
-0.234902
  20
2.890900
  30
0.000000
  11
-0.268471
  21
2.897370
  31
0.000000
  0
LINE
  8
0
  10
-0.268471
  20
2.897370
  30
0.000000
  11
-0.295937
  21
2.916779
  31
0.000000
  0
LINE
  8
0
  10
-0.295937
  20
2.916779
  30
0.000000
  11
-0.314064
  21
2.947663
  31
0.000000
  0
LINE
  8
0
  10
-0.314064
  20
2.947663
  30
0.000000
  11
-0.320107
  21
2.988068
  31
0.000000
  0
LINE
  8
0
  10
-0.048378
  20
2.866974
  30
0.000000
  11
-0.048378
  21
2.889680
  31
0.000000
  0
LINE
  8
0
  10
-0.048378
  20
2.889680
  30
0.000000
  11
-0.026650
  21
2.869538
  31
0.000000
  0
LINE
  8
0
  10
-0.026650
  20
2.869538
  30
0.000000
  11
0.001915
  21
2.862824
  31
0.000000
  0
LINE
  8
0
  10
0.001915
  20
2.862824
  30
0.000000
  11
0.031822
  21
2.869172
  31
0.000000
  0
LINE
  8
0
  10
0.031822
  20
2.869172
  30
0.000000
  11
0.057091
  21
2.888215
  31
0.000000
  0
LINE
  8
0
  10
0.057091
  20
2.888215
  30
0.000000
  11
0.074486
  21
2.918915
  31
0.000000
  0
LINE
  8
0
  10
0.074486
  20
2.918915
  30
0.000000
  11
0.080284
  21
2.960236
  31
0.000000
  0
LINE
  8
0
  10
0.080284
  20
2.960236
  30
0.000000
  11
0.078880
  21
2.979157
  31
0.000000
  0
LINE
  8
0
  10
0.078880
  20
2.979157
  30
0.000000
  11
0.074669
  21
2.996857
  31
0.000000
  0
LINE
  8
0
  10
0.074669
  20
2.996857
  30
0.000000
  11
0.068199
  21
3.012910
  31
0.000000
  0
LINE
  8
0
  10
0.068199
  20
3.012910
  30
0.000000
  11
0.059532
  21
3.026398
  31
0.000000
  0
LINE
  8
0
  10
0.059532
  20
3.026398
  30
0.000000
  11
0.048668
  21
3.037201
  31
0.000000
  0
LINE
  8
0
  10
0.048668
  20
3.037201
  30
0.000000
  11
0.035118
  21
3.045197
  31
0.000000
  0
LINE
  8
0
  10
0.035118
  20
3.045197
  30
0.000000
  11
0.019798
  21
3.050324
  31
0.000000
  0
LINE
  8
0
  10
0.019798
  20
3.050324
  30
0.000000
  11
0.003624
  21
3.052033
  31
0.000000
  0
LINE
  8
0
  10
0.003624
  20
3.052033
  30
0.000000
  11
-0.023903
  21
3.045930
  31
0.000000
  0
LINE
  8
0
  10
-0.023903
  20
3.045930
  30
0.000000
  11
-0.045937
  21
3.027619
  31
0.000000
  0
LINE
  8
0
  10
-0.045937
  20
3.027619
  30
0.000000
  11
-0.045937
  21
3.116974
  31
0.000000
  0
LINE
  8
0
  10
-0.045937
  20
3.116974
  30
0.000000
  11
-0.076699
  21
3.116974
  31
0.000000
  0
LINE
  8
0
  10
-0.076699
  20
3.116974
  30
0.000000
  11
-0.076699
  21
2.866974
  31
0.000000
  0
LINE
  8
0
  10
-0.076699
  20
2.866974
  30
0.000000
  11
-0.048378
  21
2.866974
  31
0.000000
  0
LINE
  8
0
  10
-0.048622
  20
2.958771
  30
0.000000
  11
-0.044960
  21
2.988007
  31
0.000000
  0
LINE
  8
0
  10
-0.044960
  20
2.988007
  30
0.000000
  11
-0.033974
  21
3.009308
  31
0.000000
  0
LINE
  8
0
  10
-0.033974
  20
3.009308
  30
0.000000
  11
-0.017922
  21
3.022492
  31
0.000000
  0
LINE
  8
0
  10
-0.017922
  20
3.022492
  30
0.000000
  11
0.000938
  21
3.026887
  31
0.000000
  0
LINE
  8
0
  10
0.000938
  20
3.026887
  30
0.000000
  11
0.019249
  21
3.022675
  31
0.000000
  0
LINE
  8
0
  10
0.019249
  20
3.022675
  30
0.000000
  11
0.034630
  21
3.010041
  31
0.000000
  0
LINE
  8
0
  10
0.034630
  20
3.010041
  30
0.000000
  11
0.045250
  21
2.988495
  31
0.000000
  0
LINE
  8
0
  10
0.045250
  20
2.988495
  30
0.000000
  11
0.048790
  21
2.957551
  31
0.000000
  0
LINE
  8
0
  10
0.048790
  20
2.957551
  30
0.000000
  11
0.045128
  21
2.927338
  31
0.000000
  0
LINE
  8
0
  10
0.045128
  20
2.927338
  30
0.000000
  11
0.034141
  21
2.905549
  31
0.000000
  0
LINE
  8
0
  10
0.034141
  20
2.905549
  30
0.000000
  11
0.018150
  21
2.892548
  31
0.000000
  0
LINE
  8
0
  10
0.018150
  20
2.892548
  30
0.000000
  11
-0.000527
  21
2.888215
  31
0.000000
  0
LINE
  8
0
  10
-0.000527
  20
2.888215
  30
0.000000
  11
-0.022682
  21
2.894135
  31
0.000000
  0
LINE
  8
0
  10
-0.022682
  20
2.894135
  30
0.000000
  11
-0.039833
  21
2.911896
  31
0.000000
  0
LINE
  8
0
  10
-0.039833
  20
2.911896
  30
0.000000
  11
-0.046425
  21
2.930817
  31
0.000000
  0
LINE
  8
0
  10
-0.046425
  20
2.930817
  30
0.000000
  11
-0.048622
  21
2.958771
  31
0.000000
  0
LINE
  8
0
  10
0.117393
  20
3.081330
  30
0.000000
  11
0.148155
  21
3.081330
  31
0.000000
  0
LINE
  8
0
  10
0.148155
  20
3.081330
  30
0.000000
  11
0.148155
  21
3.116974
  31
0.000000
  0
LINE
  8
0
  10
0.148155
  20
3.116974
  30
0.000000
  11
0.117393
  21
3.116974
  31
0.000000
  0
LINE
  8
0
  10
0.117393
  20
3.116974
  30
0.000000
  11
0.117393
  21
3.081330
  31
0.000000
  0
LINE
  8
0
  10
0.078575
  20
2.796662
  30
0.000000
  11
0.090294
  21
2.794282
  31
0.000000
  0
LINE
  8
0
  10
0.090294
  20
2.794282
  30
0.000000
  11
0.102501
  21
2.793488
  31
0.000000
  0
LINE
  8
0
  10
0.102501
  20
2.793488
  30
0.000000
  11
0.124656
  21
2.797761
  31
0.000000
  0
LINE
  8
0
  10
0.124656
  20
2.797761
  30
0.000000
  11
0.139366
  21
2.810578
  31
0.000000
  0
LINE
  8
0
  10
0.139366
  20
2.810578
  30
0.000000
  11
0.145958
  21
2.828827
  31
0.000000
  0
LINE
  8
0
  10
0.145958
  20
2.828827
  30
0.000000
  11
0.148155
  21
2.857209
  31
0.000000
  0
LINE
  8
0
  10
0.148155
  20
2.857209
  30
0.000000
  11
0.148155
  21
3.048127
  31
0.000000
  0
LINE
  8
0
  10
0.148155
  20
3.048127
  30
0.000000
  11
0.117393
  21
3.048127
  31
0.000000
  0
LINE
  8
0
  10
0.117393
  20
3.048127
  30
0.000000
  11
0.117393
  21
2.857697
  31
0.000000
  0
LINE
  8
0
  10
0.117393
  20
2.857697
  30
0.000000
  11
0.116234
  21
2.837494
  31
0.000000
  0
LINE
  8
0
  10
0.116234
  20
2.837494
  30
0.000000
  11
0.112755
  21
2.826691
  31
0.000000
  0
LINE
  8
0
  10
0.112755
  20
2.826691
  30
0.000000
  11
0.106956
  21
2.821930
  31
0.000000
  0
LINE
  8
0
  10
0.106956
  20
2.821930
  30
0.000000
  11
0.098839
  21
2.820344
  31
0.000000
  0
LINE
  8
0
  10
0.098839
  20
2.820344
  30
0.000000
  11
0.092552
  21
2.820954
  31
0.000000
  0
LINE
  8
0
  10
0.092552
  20
2.820954
  30
0.000000
  11
0.084434
  21
2.822785
  31
0.000000
  0
LINE
  8
0
  10
0.084434
  20
2.822785
  30
0.000000
  11
0.078575
  21
2.796662
  31
0.000000
  0
LINE
  8
0
  10
0.319053
  20
2.925324
  30
0.000000
  11
0.310936
  21
2.908478
  31
0.000000
  0
LINE
  8
0
  10
0.310936
  20
2.908478
  30
0.000000
  11
0.300255
  21
2.897004
  31
0.000000
  0
LINE
  8
0
  10
0.300255
  20
2.897004
  30
0.000000
  11
0.287071
  21
2.890412
  31
0.000000
  0
LINE
  8
0
  10
0.287071
  20
2.890412
  30
0.000000
  11
0.271446
  21
2.888215
  31
0.000000
  0
LINE
  8
0
  10
0.271446
  20
2.888215
  30
0.000000
  11
0.250633
  21
2.892121
  31
0.000000
  0
LINE
  8
0
  10
0.250633
  20
2.892121
  30
0.000000
  11
0.233604
  21
2.903840
  31
0.000000
  0
LINE
  8
0
  10
0.233604
  20
2.903840
  30
0.000000
  11
0.221824
  21
2.923249
  31
0.000000
  0
LINE
  8
0
  10
0.221824
  20
2.923249
  30
0.000000
  11
0.216758
  21
2.949738
  31
0.000000
  0
LINE
  8
0
  10
0.216758
  20
2.949738
  30
0.000000
  11
0.351768
  21
2.949738
  31
0.000000
  0
LINE
  8
0
  10
0.351768
  20
2.949738
  30
0.000000
  11
0.351768
  21
2.954438
  31
0.000000
  0
LINE
  8
0
  10
0.351768
  20
2.954438
  30
0.000000
  11
0.351768
  21
2.957795
  31
0.000000
  0
LINE
  8
0
  10
0.351768
  20
2.957795
  30
0.000000
  11
0.346031
  21
2.997651
  31
0.000000
  0
LINE
  8
0
  10
0.346031
  20
2.997651
  30
0.000000
  11
0.328819
  21
3.027375
  31
0.000000
  0
LINE
  8
0
  10
0.328819
  20
3.027375
  30
0.000000
  11
0.302513
  21
3.045868
  31
0.000000
  0
LINE
  8
0
  10
0.302513
  20
3.045868
  30
0.000000
  11
0.269493
  21
3.052033
  31
0.000000
  0
LINE
  8
0
  10
0.269493
  20
3.052033
  30
0.000000
  11
0.235435
  21
3.045746
  31
0.000000
  0
LINE
  8
0
  10
0.235435
  20
3.045746
  30
0.000000
  11
0.208458
  21
3.026887
  31
0.000000
  0
LINE
  8
0
  10
0.208458
  20
3.026887
  30
0.000000
  11
0.190880
  21
2.996552
  31
0.000000
  0
LINE
  8
0
  10
0.190880
  20
2.996552
  30
0.000000
  11
0.185020
  21
2.955842
  31
0.000000
  0
LINE
  8
0
  10
0.185020
  20
2.955842
  30
0.000000
  11
0.190819
  21
2.916718
  31
0.000000
  0
LINE
  8
0
  10
0.190819
  20
2.916718
  30
0.000000
  11
0.208214
  21
2.887238
  31
0.000000
  0
LINE
  8
0
  10
0.208214
  20
2.887238
  30
0.000000
  11
0.235557
  21
2.868928
  31
0.000000
  0
LINE
  8
0
  10
0.235557
  20
2.868928
  30
0.000000
  11
0.271202
  21
2.862824
  31
0.000000
  0
LINE
  8
0
  10
0.271202
  20
2.862824
  30
0.000000
  11
0.299888
  21
2.866669
  31
0.000000
  0
LINE
  8
0
  10
0.299888
  20
2.866669
  30
0.000000
  11
0.322960
  21
2.878205
  31
0.000000
  0
LINE
  8
0
  10
0.322960
  20
2.878205
  30
0.000000
  11
0.340050
  21
2.896699
  31
0.000000
  0
LINE
  8
0
  10
0.340050
  20
2.896699
  30
0.000000
  11
0.350792
  21
2.921418
  31
0.000000
  0
LINE
  8
0
  10
0.350792
  20
2.921418
  30
0.000000
  11
0.319053
  21
2.925324
  31
0.000000
  0
LINE
  8
0
  10
0.218467
  20
2.974885
  30
0.000000
  11
0.223167
  21
2.996186
  31
0.000000
  0
LINE
  8
0
  10
0.223167
  20
2.996186
  30
0.000000
  11
0.234337
  21
3.012726
  31
0.000000
  0
LINE
  8
0
  10
0.234337
  20
3.012726
  30
0.000000
  11
0.250389
  21
3.023347
  31
0.000000
  0
LINE
  8
0
  10
0.250389
  20
3.023347
  30
0.000000
  11
0.269737
  21
3.026887
  31
0.000000
  0
LINE
  8
0
  10
0.269737
  20
3.026887
  30
0.000000
  11
0.290977
  21
3.022431
  31
0.000000
  0
LINE
  8
0
  10
0.290977
  20
3.022431
  30
0.000000
  11
0.307823
  21
3.009064
  31
0.000000
  0
LINE
  8
0
  10
0.307823
  20
3.009064
  30
0.000000
  11
0.315513
  21
2.994904
  31
0.000000
  0
LINE
  8
0
  10
0.315513
  20
2.994904
  30
0.000000
  11
0.319542
  21
2.974885
  31
0.000000
  0
LINE
  8
0
  10
0.319542
  20
2.974885
  30
0.000000
  11
0.218467
  21
2.974885
  31
0.000000
  0
LINE
  8
0
  10
0.507530
  20
2.933381
  30
0.000000
  11
0.501915
  21
2.913239
  31
0.000000
  0
LINE
  8
0
  10
0.501915
  20
2.913239
  30
0.000000
  11
0.491905
  21
2.899201
  31
0.000000
  0
LINE
  8
0
  10
0.491905
  20
2.899201
  30
0.000000
  11
0.478416
  21
2.890961
  31
0.000000
  0
LINE
  8
0
  10
0.478416
  20
2.890961
  30
0.000000
  11
0.461876
  21
2.888215
  31
0.000000
  0
LINE
  8
0
  10
0.461876
  20
2.888215
  30
0.000000
  11
0.441551
  21
2.892304
  31
0.000000
  0
LINE
  8
0
  10
0.441551
  20
2.892304
  30
0.000000
  11
0.425499
  21
2.904572
  31
0.000000
  0
LINE
  8
0
  10
0.425499
  20
2.904572
  30
0.000000
  11
0.415062
  21
2.926118
  31
0.000000
  0
LINE
  8
0
  10
0.415062
  20
2.926118
  30
0.000000
  11
0.411583
  21
2.957551
  31
0.000000
  0
LINE
  8
0
  10
0.411583
  20
2.957551
  30
0.000000
  11
0.415184
  21
2.988801
  31
0.000000
  0
LINE
  8
0
  10
0.415184
  20
2.988801
  30
0.000000
  11
0.425987
  21
3.010285
  31
0.000000
  0
LINE
  8
0
  10
0.425987
  20
3.010285
  30
0.000000
  11
0.442589
  21
3.022736
  31
0.000000
  0
LINE
  8
0
  10
0.442589
  20
3.022736
  30
0.000000
  11
0.463585
  21
3.026887
  31
0.000000
  0
LINE
  8
0
  10
0.463585
  20
3.026887
  30
0.000000
  11
0.477806
  21
3.024567
  31
0.000000
  0
LINE
  8
0
  10
0.477806
  20
3.024567
  30
0.000000
  11
0.489708
  21
3.017609
  31
0.000000
  0
LINE
  8
0
  10
0.489708
  20
3.017609
  30
0.000000
  11
0.498985
  21
3.006257
  31
0.000000
  0
LINE
  8
0
  10
0.498985
  20
3.006257
  30
0.000000
  11
0.504844
  21
2.990265
  31
0.000000
  0
LINE
  8
0
  10
0.504844
  20
2.990265
  30
0.000000
  11
0.534630
  21
2.994904
  31
0.000000
  0
LINE
  8
0
  10
0.534630
  20
2.994904
  30
0.000000
  11
0.526085
  21
3.019135
  31
0.000000
  0
LINE
  8
0
  10
0.526085
  20
3.019135
  30
0.000000
  11
0.510704
  21
3.037140
  31
0.000000
  0
LINE
  8
0
  10
0.510704
  20
3.037140
  30
0.000000
  11
0.489219
  21
3.048310
  31
0.000000
  0
LINE
  8
0
  10
0.489219
  20
3.048310
  30
0.000000
  11
0.462364
  21
3.052033
  31
0.000000
  0
LINE
  8
0
  10
0.462364
  20
3.052033
  30
0.000000
  11
0.439964
  21
3.049286
  31
0.000000
  0
LINE
  8
0
  10
0.439964
  20
3.049286
  30
0.000000
  11
0.419151
  21
3.041047
  31
0.000000
  0
LINE
  8
0
  10
0.419151
  20
3.041047
  30
0.000000
  11
0.401878
  21
3.027314
  31
0.000000
  0
LINE
  8
0
  10
0.401878
  20
3.027314
  30
0.000000
  11
0.389610
  21
3.008088
  31
0.000000
  0
LINE
  8
0
  10
0.389610
  20
3.008088
  30
0.000000
  11
0.382286
  21
2.984284
  31
0.000000
  0
LINE
  8
0
  10
0.382286
  20
2.984284
  30
0.000000
  11
0.379844
  21
2.956818
  31
0.000000
  0
LINE
  8
0
  10
0.379844
  20
2.956818
  30
0.000000
  11
0.385460
  21
2.916657
  31
0.000000
  0
LINE
  8
0
  10
0.385460
  20
2.916657
  30
0.000000
  11
0.402305
  21
2.886994
  31
0.000000
  0
LINE
  8
0
  10
0.402305
  20
2.886994
  30
0.000000
  11
0.428673
  21
2.868867
  31
0.000000
  0
LINE
  8
0
  10
0.428673
  20
2.868867
  30
0.000000
  11
0.462364
  21
2.862824
  31
0.000000
  0
LINE
  8
0
  10
0.462364
  20
2.862824
  30
0.000000
  11
0.489586
  21
2.867219
  31
0.000000
  0
LINE
  8
0
  10
0.489586
  20
2.867219
  30
0.000000
  11
0.512169
  21
2.880402
  31
0.000000
  0
LINE
  8
0
  10
0.512169
  20
2.880402
  30
0.000000
  11
0.528770
  21
2.901581
  31
0.000000
  0
LINE
  8
0
  10
0.528770
  20
2.901581
  30
0.000000
  11
0.537559
  21
2.929474
  31
0.000000
  0
LINE
  8
0
  10
0.537559
  20
2.929474
  30
0.000000
  11
0.507530
  21
2.933381
  31
0.000000
  0
LINE
  8
0
  10
0.630821
  20
2.894318
  30
0.000000
  11
0.623314
  21
2.893586
  31
0.000000
  0
LINE
  8
0
  10
0.623314
  20
2.893586
  30
0.000000
  11
0.617393
  21
2.893342
  31
0.000000
  0
LINE
  8
0
  10
0.617393
  20
2.893342
  30
0.000000
  11
0.611351
  21
2.893891
  31
0.000000
  0
LINE
  8
0
  10
0.611351
  20
2.893891
  30
0.000000
  11
0.606895
  21
2.895539
  31
0.000000
  0
LINE
  8
0
  10
0.606895
  20
2.895539
  30
0.000000
  11
0.603721
  21
2.898102
  31
0.000000
  0
LINE
  8
0
  10
0.603721
  20
2.898102
  30
0.000000
  11
0.601524
  21
2.901398
  31
0.000000
  0
LINE
  8
0
  10
0.601524
  20
2.901398
  30
0.000000
  11
0.600425
  21
2.907441
  31
0.000000
  0
LINE
  8
0
  10
0.600425
  20
2.907441
  30
0.000000
  11
0.600059
  21
2.918244
  31
0.000000
  0
LINE
  8
0
  10
0.600059
  20
2.918244
  30
0.000000
  11
0.600059
  21
3.024201
  31
0.000000
  0
LINE
  8
0
  10
0.600059
  20
3.024201
  30
0.000000
  11
0.630821
  21
3.024201
  31
0.000000
  0
LINE
  8
0
  10
0.630821
  20
3.024201
  30
0.000000
  11
0.630821
  21
3.048127
  31
0.000000
  0
LINE
  8
0
  10
0.630821
  20
3.048127
  30
0.000000
  11
0.600059
  21
3.048127
  31
0.000000
  0
LINE
  8
0
  10
0.600059
  20
3.048127
  30
0.000000
  11
0.600059
  21
3.111359
  31
0.000000
  0
LINE
  8
0
  10
0.600059
  20
3.111359
  30
0.000000
  11
0.569542
  21
3.092805
  31
0.000000
  0
LINE
  8
0
  10
0.569542
  20
3.092805
  30
0.000000
  11
0.569542
  21
3.048127
  31
0.000000
  0
LINE
  8
0
  10
0.569542
  20
3.048127
  30
0.000000
  11
0.547081
  21
3.048127
  31
0.000000
  0
LINE
  8
0
  10
0.547081
  20
3.048127
  30
0.000000
  11
0.547081
  21
3.024201
  31
0.000000
  0
LINE
  8
0
  10
0.547081
  20
3.024201
  30
0.000000
  11
0.569542
  21
3.024201
  31
0.000000
  0
LINE
  8
0
  10
0.569542
  20
3.024201
  30
0.000000
  11
0.569542
  21
2.919953
  31
0.000000
  0
LINE
  8
0
  10
0.569542
  20
2.919953
  30
0.000000
  11
0.570457
  21
2.897126
  31
0.000000
  0
LINE
  8
0
  10
0.570457
  20
2.897126
  30
0.000000
  11
0.573204
  21
2.883820
  31
0.000000
  0
LINE
  8
0
  10
0.573204
  20
2.883820
  30
0.000000
  11
0.578392
  21
2.876069
  31
0.000000
  0
LINE
  8
0
  10
0.578392
  20
2.876069
  30
0.000000
  11
0.586143
  21
2.869904
  31
0.000000
  0
LINE
  8
0
  10
0.586143
  20
2.869904
  30
0.000000
  11
0.597252
  21
2.865876
  31
0.000000
  0
LINE
  8
0
  10
0.597252
  20
2.865876
  30
0.000000
  11
0.612022
  21
2.864533
  31
0.000000
  0
LINE
  8
0
  10
0.612022
  20
2.864533
  30
0.000000
  11
0.622947
  21
2.865204
  31
0.000000
  0
LINE
  8
0
  10
0.622947
  20
2.865204
  30
0.000000
  11
0.635216
  21
2.867219
  31
0.000000
  0
LINE
  8
0
  10
0.635216
  20
2.867219
  30
0.000000
  11
0.630821
  21
2.894318
  31
0.000000
  0
LINE
  8
0
  10
0.833214
  20
2.866974
  30
0.000000
  11
0.867149
  21
2.866974
  31
0.000000
  0
LINE
  8
0
  10
0.867149
  20
2.866974
  30
0.000000
  11
0.965050
  21
3.116974
  31
0.000000
  0
LINE
  8
0
  10
0.965050
  20
3.116974
  30
0.000000
  11
0.931358
  21
3.116974
  31
0.000000
  0
LINE
  8
0
  10
0.931358
  20
3.116974
  30
0.000000
  11
0.863731
  21
2.935334
  31
0.000000
  0
LINE
  8
0
  10
0.863731
  20
2.935334
  30
0.000000
  11
0.856590
  21
2.914826
  31
0.000000
  0
LINE
  8
0
  10
0.856590
  20
2.914826
  30
0.000000
  11
0.850303
  21
2.894318
  31
0.000000
  0
LINE
  8
0
  10
0.850303
  20
2.894318
  30
0.000000
  11
0.844322
  21
2.914216
  31
0.000000
  0
LINE
  8
0
  10
0.844322
  20
2.914216
  30
0.000000
  11
0.837120
  21
2.935334
  31
0.000000
  0
LINE
  8
0
  10
0.837120
  20
2.935334
  30
0.000000
  11
0.772178
  21
3.116974
  31
0.000000
  0
LINE
  8
0
  10
0.772178
  20
3.116974
  30
0.000000
  11
0.736290
  21
3.116974
  31
0.000000
  0
LINE
  8
0
  10
0.736290
  20
3.116974
  30
0.000000
  11
0.833214
  21
2.866974
  31
0.000000
  0
LINE
  8
0
  10
1.114708
  20
2.925324
  30
0.000000
  11
1.106407
  21
2.908478
  31
0.000000
  0
LINE
  8
0
  10
1.106407
  20
2.908478
  30
0.000000
  11
1.095665
  21
2.897004
  31
0.000000
  0
LINE
  8
0
  10
1.095665
  20
2.897004
  30
0.000000
  11
1.082481
  21
2.890412
  31
0.000000
  0
LINE
  8
0
  10
1.082481
  20
2.890412
  30
0.000000
  11
1.066856
  21
2.888215
  31
0.000000
  0
LINE
  8
0
  10
1.066856
  20
2.888215
  30
0.000000
  11
1.046165
  21
2.892121
  31
0.000000
  0
LINE
  8
0
  10
1.046165
  20
2.892121
  30
0.000000
  11
1.029014
  21
2.903840
  31
0.000000
  0
LINE
  8
0
  10
1.029014
  20
2.903840
  30
0.000000
  11
1.017235
  21
2.923249
  31
0.000000
  0
LINE
  8
0
  10
1.017235
  20
2.923249
  30
0.000000
  11
1.012169
  21
2.949738
  31
0.000000
  0
LINE
  8
0
  10
1.012169
  20
2.949738
  30
0.000000
  11
1.147178
  21
2.949738
  31
0.000000
  0
LINE
  8
0
  10
1.147178
  20
2.949738
  30
0.000000
  11
1.147362
  21
2.954438
  31
0.000000
  0
LINE
  8
0
  10
1.147362
  20
2.954438
  30
0.000000
  11
1.147423
  21
2.957795
  31
0.000000
  0
LINE
  8
0
  10
1.147423
  20
2.957795
  30
0.000000
  11
1.141624
  21
2.997651
  31
0.000000
  0
LINE
  8
0
  10
1.141624
  20
2.997651
  30
0.000000
  11
1.124229
  21
3.027375
  31
0.000000
  0
LINE
  8
0
  10
1.124229
  20
3.027375
  30
0.000000
  11
1.097984
  21
3.045868
  31
0.000000
  0
LINE
  8
0
  10
1.097984
  20
3.045868
  30
0.000000
  11
1.065147
  21
3.052033
  31
0.000000
  0
LINE
  8
0
  10
1.065147
  20
3.052033
  30
0.000000
  11
1.031029
  21
3.045746
  31
0.000000
  0
LINE
  8
0
  10
1.031029
  20
3.045746
  30
0.000000
  11
1.003868
  21
3.026887
  31
0.000000
  0
LINE
  8
0
  10
1.003868
  20
3.026887
  30
0.000000
  11
0.986290
  21
2.996552
  31
0.000000
  0
LINE
  8
0
  10
0.986290
  20
2.996552
  30
0.000000
  11
0.980430
  21
2.955842
  31
0.000000
  0
LINE
  8
0
  10
0.980430
  20
2.955842
  30
0.000000
  11
0.986229
  21
2.916718
  31
0.000000
  0
LINE
  8
0
  10
0.986229
  20
2.916718
  30
0.000000
  11
1.003624
  21
2.887238
  31
0.000000
  0
LINE
  8
0
  10
1.003624
  20
2.887238
  30
0.000000
  11
1.031151
  21
2.868928
  31
0.000000
  0
LINE
  8
0
  10
1.031151
  20
2.868928
  30
0.000000
  11
1.066856
  21
2.862824
  31
0.000000
  0
LINE
  8
0
  10
1.066856
  20
2.862824
  30
0.000000
  11
1.095543
  21
2.866669
  31
0.000000
  0
LINE
  8
0
  10
1.095543
  20
2.866669
  30
0.000000
  11
1.118614
  21
2.878205
  31
0.000000
  0
LINE
  8
0
  10
1.118614
  20
2.878205
  30
0.000000
  11
1.135704
  21
2.896699
  31
0.000000
  0
LINE
  8
0
  10
1.135704
  20
2.896699
  30
0.000000
  11
1.146446
  21
2.921418
  31
0.000000
  0
LINE
  8
0
  10
1.146446
  20
2.921418
  30
0.000000
  11
1.114708
  21
2.925324
  31
0.000000
  0
LINE
  8
0
  10
1.013878
  20
2.974885
  30
0.000000
  11
1.018760
  21
2.996186
  31
0.000000
  0
LINE
  8
0
  10
1.018760
  20
2.996186
  30
0.000000
  11
1.029991
  21
3.012726
  31
0.000000
  0
LINE
  8
0
  10
1.029991
  20
3.012726
  30
0.000000
  11
1.046043
  21
3.023347
  31
0.000000
  0
LINE
  8
0
  10
1.046043
  20
3.023347
  30
0.000000
  11
1.065391
  21
3.026887
  31
0.000000
  0
LINE
  8
0
  10
1.065391
  20
3.026887
  30
0.000000
  11
1.086632
  21
3.022431
  31
0.000000
  0
LINE
  8
0
  10
1.086632
  20
3.022431
  30
0.000000
  11
1.103477
  21
3.009064
  31
0.000000
  0
LINE
  8
0
  10
1.103477
  20
3.009064
  30
0.000000
  11
1.111107
  21
2.994904
  31
0.000000
  0
LINE
  8
0
  10
1.111107
  20
2.994904
  30
0.000000
  11
1.114952
  21
2.974885
  31
0.000000
  0
LINE
  8
0
  10
1.114952
  20
2.974885
  30
0.000000
  11
1.013878
  21
2.974885
  31
0.000000
  0
LINE
  8
0
  10
1.184532
  20
2.866974
  30
0.000000
  11
1.215294
  21
2.866974
  31
0.000000
  0
LINE
  8
0
  10
1.215294
  20
2.866974
  30
0.000000
  11
1.215294
  21
2.961701
  31
0.000000
  0
LINE
  8
0
  10
1.215294
  20
2.961701
  30
0.000000
  11
1.216575
  21
2.980439
  31
0.000000
  0
LINE
  8
0
  10
1.216575
  20
2.980439
  30
0.000000
  11
1.220421
  21
2.997590
  31
0.000000
  0
LINE
  8
0
  10
1.220421
  20
2.997590
  30
0.000000
  11
1.224937
  21
3.007111
  31
0.000000
  0
LINE
  8
0
  10
1.224937
  20
3.007111
  30
0.000000
  11
1.231651
  21
3.014191
  31
0.000000
  0
LINE
  8
0
  10
1.231651
  20
3.014191
  30
0.000000
  11
1.240257
  21
3.018769
  31
0.000000
  0
LINE
  8
0
  10
1.240257
  20
3.018769
  30
0.000000
  11
1.249962
  21
3.020295
  31
0.000000
  0
LINE
  8
0
  10
1.249962
  20
3.020295
  30
0.000000
  11
1.261192
  21
3.018647
  31
0.000000
  0
LINE
  8
0
  10
1.261192
  20
3.018647
  30
0.000000
  11
1.272423
  21
3.013703
  31
0.000000
  0
LINE
  8
0
  10
1.272423
  20
3.013703
  30
0.000000
  11
1.282921
  21
3.042267
  31
0.000000
  0
LINE
  8
0
  10
1.282921
  20
3.042267
  30
0.000000
  11
1.266990
  21
3.049592
  31
0.000000
  0
LINE
  8
0
  10
1.266990
  20
3.049592
  30
0.000000
  11
1.251426
  21
3.052033
  31
0.000000
  0
LINE
  8
0
  10
1.251426
  20
3.052033
  30
0.000000
  11
1.241112
  21
3.050507
  31
0.000000
  0
LINE
  8
0
  10
1.241112
  20
3.050507
  30
0.000000
  11
1.231651
  21
3.045930
  31
0.000000
  0
LINE
  8
0
  10
1.231651
  20
3.045930
  30
0.000000
  11
1.222374
  21
3.036530
  31
0.000000
  0
LINE
  8
0
  10
1.222374
  20
3.036530
  30
0.000000
  11
1.212120
  21
3.020539
  31
0.000000
  0
LINE
  8
0
  10
1.212120
  20
3.020539
  30
0.000000
  11
1.212120
  21
3.048127
  31
0.000000
  0
LINE
  8
0
  10
1.212120
  20
3.048127
  30
0.000000
  11
1.184532
  21
3.048127
  31
0.000000
  0
LINE
  8
0
  10
1.184532
  20
3.048127
  30
0.000000
  11
1.184532
  21
2.866974
  31
0.000000
  0
LINE
  8
0
  10
1.368126
  20
2.894318
  30
0.000000
  11
1.360618
  21
2.893586
  31
0.000000
  0
LINE
  8
0
  10
1.360618
  20
2.893586
  30
0.000000
  11
1.354698
  21
2.893342
  31
0.000000
  0
LINE
  8
0
  10
1.354698
  20
2.893342
  30
0.000000
  11
1.348655
  21
2.893891
  31
0.000000
  0
LINE
  8
0
  10
1.348655
  20
2.893891
  30
0.000000
  11
1.344200
  21
2.895539
  31
0.000000
  0
LINE
  8
0
  10
1.344200
  20
2.895539
  30
0.000000
  11
1.341026
  21
2.898102
  31
0.000000
  0
LINE
  8
0
  10
1.341026
  20
2.898102
  30
0.000000
  11
1.338829
  21
2.901398
  31
0.000000
  0
LINE
  8
0
  10
1.338829
  20
2.901398
  30
0.000000
  11
1.337730
  21
2.907441
  31
0.000000
  0
LINE
  8
0
  10
1.337730
  20
2.907441
  30
0.000000
  11
1.337364
  21
2.918244
  31
0.000000
  0
LINE
  8
0
  10
1.337364
  20
2.918244
  30
0.000000
  11
1.337364
  21
3.024201
  31
0.000000
  0
LINE
  8
0
  10
1.337364
  20
3.024201
  30
0.000000
  11
1.368126
  21
3.024201
  31
0.000000
  0
LINE
  8
0
  10
1.368126
  20
3.024201
  30
0.000000
  11
1.368126
  21
3.048127
  31
0.000000
  0
LINE
  8
0
  10
1.368126
  20
3.048127
  30
0.000000
  11
1.337364
  21
3.048127
  31
0.000000
  0
LINE
  8
0
  10
1.337364
  20
3.048127
  30
0.000000
  11
1.337364
  21
3.111359
  31
0.000000
  0
LINE
  8
0
  10
1.337364
  20
3.111359
  30
0.000000
  11
1.306846
  21
3.092805
  31
0.000000
  0
LINE
  8
0
  10
1.306846
  20
3.092805
  30
0.000000
  11
1.306846
  21
3.048127
  31
0.000000
  0
LINE
  8
0
  10
1.306846
  20
3.048127
  30
0.000000
  11
1.284385
  21
3.048127
  31
0.000000
  0
LINE
  8
0
  10
1.284385
  20
3.048127
  30
0.000000
  11
1.284385
  21
3.024201
  31
0.000000
  0
LINE
  8
0
  10
1.284385
  20
3.024201
  30
0.000000
  11
1.306846
  21
3.024201
  31
0.000000
  0
LINE
  8
0
  10
1.306846
  20
3.024201
  30
0.000000
  11
1.306846
  21
2.919953
  31
0.000000
  0
LINE
  8
0
  10
1.306846
  20
2.919953
  30
0.000000
  11
1.307762
  21
2.897126
  31
0.000000
  0
LINE
  8
0
  10
1.307762
  20
2.897126
  30
0.000000
  11
1.310509
  21
2.883820
  31
0.000000
  0
LINE
  8
0
  10
1.310509
  20
2.883820
  30
0.000000
  11
1.315697
  21
2.876069
  31
0.000000
  0
LINE
  8
0
  10
1.315697
  20
2.876069
  30
0.000000
  11
1.323448
  21
2.869904
  31
0.000000
  0
LINE
  8
0
  10
1.323448
  20
2.869904
  30
0.000000
  11
1.334556
  21
2.865876
  31
0.000000
  0
LINE
  8
0
  10
1.334556
  20
2.865876
  30
0.000000
  11
1.349327
  21
2.864533
  31
0.000000
  0
LINE
  8
0
  10
1.349327
  20
2.864533
  30
0.000000
  11
1.360252
  21
2.865204
  31
0.000000
  0
LINE
  8
0
  10
1.360252
  20
2.865204
  30
0.000000
  11
1.372520
  21
2.867219
  31
0.000000
  0
LINE
  8
0
  10
1.372520
  20
2.867219
  30
0.000000
  11
1.368126
  21
2.894318
  31
0.000000
  0
ARC
  8
0
  10
-0.928653
  20
3.991974
  30
0.000000
  40
0.093750
  50
0.000000
  51
90.000000
  0
ARC
  8
0
  10
-0.928653
  20
3.991974
  30
0.000000
  40
0.093750
  50
90.000000
  51
180.000000
  0
ARC
  8
0
  10
-0.928653
  20
3.991974
  30
0.000000
  40
0.093750
  50
180.000000
  51
-90.000000
  0
ARC
  8
0
  10
-0.928653
  20
3.991974
  30
0.000000
  40
0.093750
  50
-90.000000
  51
0.000000
  0
LINE
  8
0
  10
1.500258
  20
0.053463
  30
0.000000
  11
1.500258
  21
-0.446537
  31
0.000000
  0
LINE
  8
0
  10
1.500258
  20
-0.446537
  30
0.000000
  11
1.867375
  21
-0.446537
  31
0.000000
  0
LINE
  8
0
  10
1.867375
  20
-0.446537
  30
0.000000
  11
1.867375
  21
0.053463
  31
0.000000
  0
LINE
  8
0
  10
1.867375
  20
0.053463
  30
0.000000
  11
1.500258
  21
0.053463
  31
0.000000
  0
LINE
  8
0
  10
-0.407625
  20
-0.446537
  30
0.000000
  11
-0.407625
  21
0.053463
  31
0.000000
  0
LINE
  8
0
  10
-0.407625
  20
0.053463
  30
0.000000
  11
-0.774742
  21
0.053463
  31
0.000000
  0
LINE
  8
0
  10
-0.774742
  20
0.053463
  30
0.000000
  11
-0.774742
  21
-0.446537
  31
0.000000
  0
LINE
  8
0
  10
-0.774742
  20
-0.446537
  30
0.000000
  11
-0.407625
  21
-0.446537
  31
0.000000
  0
ARC
  8
0
  10
-0.553683
  20
1.528463
  30
0.000000
  40
0.100000
  50
90.000000
  51
180.000000
  0
LINE
  8
0
  10
-0.653683
  20
1.528463
  30
0.000000
  11
-0.653683
  21
-1.921537
  31
0.000000
  0
ARC
  8
0
  10
-0.553683
  20
-1.921537
  30
0.000000
  40
0.100000
  50
180.000000
  51
-90.000000
  0
LINE
  8
0
  10
-0.553683
  20
-2.021537
  30
0.000000
  11
1.646317
  21
-2.021537
  31
0.000000
  0
ARC
  8
0
  10
1.646317
  20
-1.921537
  30
0.000000
  40
0.100000
  50
-90.000000
  51
0.000000
  0
LINE
  8
0
  10
1.746317
  20
-1.921537
  30
0.000000
  11
1.746317
  21
1.528463
  31
0.000000
  0
ARC
  8
0
  10
1.646317
  20
1.528463
  30
0.000000
  40
0.100000
  50
0.000000
  51
90.000000
  0
LINE
  8
0
  10
1.646317
  20
1.628463
  30
0.000000
  11
1.106317
  21
1.628463
  31
0.000000
  0
ARC
  8
0
  10
1.106317
  20
1.530395
  30
0.000000
  40
0.098068
  50
90.000000
  51
160.000000
  0
LINE
  8
0
  10
1.014163
  20
1.563936
  30
0.000000
  11
0.916171
  21
1.294706
  31
0.000000
  0
ARC
  8
0
  10
0.821566
  20
1.329139
  30
0.000000
  40
0.100676
  50
-90.000000
  51
-20.000000
  0
LINE
  8
0
  10
0.821566
  20
1.228463
  30
0.000000
  11
0.271067
  21
1.228463
  31
0.000000
  0
ARC
  8
0
  10
0.271067
  20
1.329139
  30
0.000000
  40
0.100676
  50
-160.000000
  51
-90.000000
  0
LINE
  8
0
  10
0.176462
  20
1.294706
  30
0.000000
  11
0.078470
  21
1.563936
  31
0.000000
  0
ARC
  8
0
  10
-0.013683
  20
1.530395
  30
0.000000
  40
0.098068
  50
20.000000
  51
90.000000
  0
LINE
  8
0
  10
-0.013683
  20
1.628463
  30
0.000000
  11
-0.553683
  21
1.628463
  31
0.000000
  0
LINE
  8
0
  10
1.527567
  20
1.503463
  30
0.000000
  11
-0.434933
  21
1.503463
  31
0.000000
  0
ARC
  8
0
  10
-0.434933
  20
1.409713
  30
0.000000
  40
0.093750
  50
90.000000
  51
180.000000
  0
LINE
  8
0
  10
-0.528683
  20
1.409713
  30
0.000000
  11
-0.528683
  21
-1.802787
  31
0.000000
  0
ARC
  8
0
  10
-0.434933
  20
-1.802787
  30
0.000000
  40
0.093750
  50
180.000000
  51
-90.000000
  0
LINE
  8
0
  10
-0.434933
  20
-1.896537
  30
0.000000
  11
1.527567
  21
-1.896537
  31
0.000000
  0
ARC
  8
0
  10
1.527567
  20
-1.802787
  30
0.000000
  40
0.093750
  50
-90.000000
  51
0.000000
  0
LINE
  8
0
  10
1.621317
  20
-1.802787
  30
0.000000
  11
1.621317
  21
1.409713
  31
0.000000
  0
ARC
  8
0
  10
1.527567
  20
1.409713
  30
0.000000
  40
0.093750
  50
0.000000
  51
90.000000
  0
LINE
  8
0
  10
-0.834903
  20
3.491974
  30
0.000000
  11
-1.255347
  21
3.491974
  31
0.000000
  0
LINE
  8
0
  10
-0.834903
  20
2.991974
  30
0.000000
  11
-1.375805
  21
2.991974
  31
0.000000
  0
ENDSEC
  0
EOF
